<svg width="600" height="500" viewBox="0 0 600 500" fill="none" xmlns="http://www.w3.org/2000/svg">
  <path
    d="M514.398 424.786l-1.566-1.752c.456-.408.714-1.23.678-2.148-.036-.936-.384-1.788-.882-2.166-3.678-2.802-12.192-.462-18.402 1.248-5.448 1.5-8.742 2.4-10.032.75-.966-1.236-.006-2.946.306-3.504 2.118-3.78 9.414-5.724 17.862-7.974 11.262-3 24.024-6.396 23.718-14.43-.072-1.8-.636-3.126-1.728-4.062-3.036-2.592-9.702-1.788-14.574-1.2-4.362.528-7.002.84-7.83-.834-.702-1.416.606-3.054 2.118-4.62 3.522-3.63 7.14-10.77 9.228-18.186 2.274-8.094 2.4-14.958.336-18.834-1.578-2.97-4.368-4.056-8.514-3.312-9.798 1.752-11.562 13.05-13.11 23.016-.66 4.248-1.29 8.262-2.514 11.154-1.494 3.528-3.858 5.1-7.026 4.668-6.996-.954-8.43-7.554-9.576-12.858-.696-3.222-1.356-6.258-3.012-7.11-.93-.48-2.334-.318-4.17.48-5.628 2.436-4.116 12.348-2.646 21.93.744 4.86 1.512 9.882 1.308 13.92-.246 4.896-1.908 7.866-5.082 9.072-6.756 2.574-9.444-2.784-11.406-6.702-1.152-2.298-2.238-4.464-3.714-4.728-1.188-.21-2.874.714-5.016 2.736-5.712 5.394-3.234 16.326.63 24.054l-2.1 1.05c-1.002-2.004-3.408-7.296-4.074-13.116-.684-5.976.636-10.584 3.93-13.692 2.79-2.634 5.028-3.696 7.038-3.342 2.64.468 4.044 3.276 5.406 5.988 2.298 4.59 4.02 7.254 8.466 5.556 5.118-1.95 3.678-11.352 2.286-20.448-1.602-10.464-3.252-21.288 4.038-24.438 2.55-1.104 4.566-1.236 6.174-.414 2.646 1.356 3.414 4.926 4.236 8.7 1.098 5.064 2.232 10.296 7.602 11.028 4.416.6 5.502-4.872 6.9-13.854 1.59-10.212 3.57-22.92 15.018-24.966 6.486-1.158 9.564 1.818 10.998 4.524 2.34 4.404 2.286 11.904-.15 20.568-2.214 7.884-5.97 15.234-9.804 19.188-.936.966-1.344 1.542-1.518 1.854.984.144 3.42-.15 5.262-.372 5.592-.672 12.558-1.512 16.38 1.746 1.596 1.362 2.454 3.3 2.55 5.754.384 9.906-13.35 13.566-25.458 16.788-7.266 1.938-14.784 3.936-16.416 6.852-.246.438-.354.726-.396.888 1.116.192 4.752-.804 7.452-1.548 7.062-1.944 15.846-4.356 20.448-.852 1.068.81 1.74 2.286 1.806 3.942.066 1.644-.48 3.132-1.458 4.008z"
    fill="#9BD" />
  <path
    d="M474.996 424.594l-1.932-1.338c9.834-14.208 23.004-37.11 29.862-65.484l2.28.552c-6.942 28.728-20.262 51.894-30.21 66.27z"
    fill="#9BD" />
  <path
    d="M513.102 395.965l-26.708 6.1.522 2.287 26.709-6.099-.523-2.288zM474.469 386.997l-2.298.472 5.916 28.768 2.298-.472-5.916-28.768zM449.696 415.305l-1.946 1.31 5.337 7.929 1.946-1.31-5.337-7.929zM96.144 426.274c-11.502 0-21.252-4.32-26.088-11.55-2.85-4.266-3.51-9.048-1.818-13.128 1.35-3.258 8.118-1.938 19.05.492 3.882.864 7.896 1.752 11.01 2.148 4.47.57 5.148-.15 5.208-.234.06-.078.096-.474-.414-1.38-2.106-3.756-11.142-6.162-20.712-8.712-15.042-4.008-32.094-8.55-31.626-20.706.114-2.988 1.152-5.34 3.084-6.99 4.68-3.99 13.686-2.91 20.262-2.118 2.586.312 6.078.732 7.044.378-.108-.306-.516-1.092-2.112-2.736-4.758-4.908-9.432-14.058-12.192-23.874-3.03-10.77-3.102-20.07-.21-25.512 1.752-3.294 5.508-6.924 13.446-5.502 6.336 1.134 10.884 4.998 13.908 11.814 2.556 5.76 3.666 12.882 4.644 19.17 1.776 11.412 3.162 18.372 8.958 17.58 6.918-.942 8.364-7.596 9.756-14.022 1.008-4.656 1.962-9.048 5.142-10.686 1.926-.99 4.368-.816 7.47.522 8.91 3.852 6.858 17.274 4.878 30.252-.912 5.946-1.848 12.102-1.614 16.884.252 5.034 1.734 7.896 4.662 9.012 6.348 2.418 9.474-1.74 12.498-5.76 2.01-2.676 3.912-5.202 6.66-5.124 2.346.066 4.656 1.998 7.5 6.258 2.802 4.206 3.906 9.132 3.27 14.64-.498 4.326-2.064 9.012-4.656 13.932-4.374 8.298-10.098 14.34-10.338 14.592l-1.698-1.62c.06-.06 5.766-6.09 9.984-14.106 5.532-10.524 6.036-19.314 1.488-26.136-2.28-3.42-4.164-5.172-5.61-5.214h-.048c-1.518 0-2.976 1.944-4.668 4.194-3.042 4.044-7.212 9.588-15.21 6.54-3.852-1.47-5.874-5.094-6.168-11.088-.252-5.016.708-11.286 1.638-17.352 1.848-12.096 3.762-24.612-3.486-27.744-2.418-1.044-4.206-1.236-5.466-.588-2.196 1.128-3.036 4.998-3.924 9.096-1.416 6.546-3.18 14.688-11.73 15.852-3.864.528-6.636-1.326-8.478-5.664-1.518-3.582-2.298-8.58-3.12-13.878-1.956-12.564-4.176-26.802-16.644-29.034-5.256-.942-8.946.504-10.962 4.296-5.568 10.47 2.406 36.744 12.012 46.65 1.818 1.878 3.396 3.834 2.598 5.442-.948 1.914-4.164 1.524-9.498.882-6.144-.738-14.556-1.752-18.456 1.572-1.434 1.224-2.172 2.952-2.262 5.292-.396 10.284 15.69 14.568 29.886 18.348 10.5 2.796 19.566 5.214 22.158 9.834.906 1.614.99 2.94.252 3.93-1.884 2.538-8.304 1.266-18.612-1.026-4.068-.9-8.268-1.836-11.466-2.208-4.5-.522-4.902.318-4.908.324-1.386 3.342-.804 7.326 1.602 10.926 4.392 6.582 13.416 10.506 24.132 10.506v2.334h-.006z"
    fill="#9BD" />
  <path
    d="M129.336 425.878c-.09-.102-9.006-10.218-19.506-27.306-6.162-10.032-11.67-20.472-16.356-31.032-5.868-13.212-10.47-26.652-13.68-39.948l2.28-.552c7.2 29.79 20.142 54.648 29.73 70.26 10.398 16.926 19.206 26.928 19.296 27.03l-1.764 1.548z"
    fill="#9BD" />
  <path
    d="M69.594 375.079l-.523 2.287 33.406 7.631.522-2.287-33.405-7.631zM118.22 363.541l-7.403 35.984 2.298.473 7.403-35.984-2.298-.473zM149.191 399.138l-17.038 25.317 1.946 1.31 17.038-25.317-1.946-1.31zM90.726 414.865l-.703 2.239 29.003 9.097.702-2.238-29.002-9.098zM343.134 97.654c-5.34 0-9.684-4.344-9.684-9.684 0-5.34 4.344-9.684 9.684-9.684 5.34 0 9.684 4.344 9.684 9.684 0 5.34-4.344 9.684-9.684 9.684zm0-17.022c-4.044 0-7.338 3.288-7.338 7.338a7.341 7.341 0 0 0 7.338 7.338c4.044 0 7.338-3.288 7.338-7.338a7.341 7.341 0 0 0-7.338-7.338zm-175.758 41.316c-5.34 0-9.684-4.344-9.684-9.684 0-5.34 4.344-9.684 9.684-9.684 5.34 0 9.684 4.344 9.684 9.684 0 5.34-4.344 9.684-9.684 9.684zm0-17.022c-4.044 0-7.338 3.288-7.338 7.338 0 4.044 3.288 7.338 7.338 7.338 4.044 0 7.338-3.288 7.338-7.338-.006-4.05-3.294-7.338-7.338-7.338zm11.412 118.686c-5.34 0-9.684-4.344-9.684-9.684 0-5.34 4.344-9.684 9.684-9.684 5.34 0 9.684 4.344 9.684 9.684 0 5.34-4.344 9.684-9.684 9.684zm0-17.016c-4.044 0-7.338 3.288-7.338 7.338a7.341 7.341 0 0 0 7.338 7.338c4.044 0 7.338-3.288 7.338-7.338 0-4.05-3.294-7.338-7.338-7.338zm-80.412 69.09c-5.34 0-9.684-4.344-9.684-9.684 0-5.34 4.344-9.684 9.684-9.684 5.34 0 9.684 4.344 9.684 9.684 0 5.34-4.344 9.684-9.684 9.684zm0-17.022c-4.044 0-7.338 3.288-7.338 7.338 0 4.044 3.288 7.338 7.338 7.338 4.044 0 7.338-3.288 7.338-7.338 0-4.044-3.294-7.338-7.338-7.338z"
    fill="#9BD" />
  <path d="M520.872 432.238H54.798a9.49 9.49 0 0 1 9.492-9.492h447.096c5.238.006 9.486 4.254 9.486 9.492z"
    fill="#576C89" />
  <path
    d="M496.122 336.472c-.174 0-.354-.018-.528-.048l-9.522-1.812a2.84 2.84 0 0 1-2.22-2.112l-.858-3.528 17.538 3.342-2.094 2.964a2.836 2.836 0 0 1-2.316 1.194zm-9.606-4.17l9.522 1.812a.478.478 0 0 0 .474-.18l-10.368-1.974a.482.482 0 0 0 .372.342z"
    fill="#9BD" />
  <path
    d="M499.182 334.324a6.5 6.5 0 0 1-1.224-.114l-13.278-2.526a6.514 6.514 0 0 1-4.428-3.15l-3.102-5.394a6.528 6.528 0 0 1-.756-4.47l2.766-14.52 34.056 6.486-2.766 14.52a6.527 6.527 0 0 1-2.346 3.882l-4.866 3.876a6.534 6.534 0 0 1-4.056 1.41zm-18.15-27.432l-2.328 12.216a4.178 4.178 0 0 0 .48 2.862l3.102 5.394a4.157 4.157 0 0 0 2.832 2.016l13.278 2.526a4.174 4.174 0 0 0 3.378-.834l4.866-3.876a4.171 4.171 0 0 0 1.5-2.484l2.328-12.216-29.436-5.604z"
    fill="#9BD" />
  <path
    d="M511.698 312.658a4.36 4.36 0 0 1-.678-.054 114.382 114.382 0 0 1-30.654-5.838c-2.052-.438-3.474-2.388-3.246-4.482l.006-.054c.978-9.144-.99-12.672-3.96-18-1.464-2.622-3.126-5.598-4.806-9.81l-.09-.228c-.09-.222-.174-.45-.258-.672l-.072-.192c-.078-.204-.15-.414-.222-.618l-.09-.264c-.078-.222-.15-.444-.222-.666l-.048-.15c-.084-.264-.168-.528-.246-.798l-.072-.252c-.06-.204-.114-.408-.174-.612l-.066-.24c-.072-.27-.138-.54-.204-.81l-.042-.192c-.054-.222-.102-.444-.15-.66l-.054-.258a27.17 27.17 0 0 1-.15-.744l-.024-.108a41.09 41.09 0 0 1-.15-.84l-.042-.246c-.036-.222-.066-.444-.102-.666l-.03-.222c-.042-.282-.078-.57-.108-.852l-.018-.186-.072-.702-.024-.252c-.024-.27-.042-.54-.06-.81l-.006-.06a43.411 43.411 0 0 1-.048-.882l-.006-.246-.018-.696-.006-.21a21.318 21.318 0 0 1 0-.876l.006-.186.018-.72.006-.252c.012-.288.024-.576.042-.864v-.03c.018-.3.042-.6.066-.894l.024-.24.072-.726.024-.198c.036-.3.072-.594.114-.894l.03-.198.108-.726.042-.246c.048-.3.102-.606.162-.906.06-.33.132-.66.198-.99.012-.066.03-.132.042-.192l.03-.138c.048-.216.096-.432.15-.642.018-.078.042-.162.06-.24l.06-.24.126-.486c.024-.096.054-.186.078-.276l.066-.222.126-.45.09-.288.066-.21c.048-.15.09-.294.138-.444.036-.108.072-.216.108-.318l.042-.132.162-.48c.036-.108.078-.222.12-.336l.048-.126c.054-.156.114-.306.168-.456l.144-.372.018-.048c.066-.162.126-.324.192-.486.054-.132.108-.27.168-.402.072-.18.144-.336.21-.498.06-.138.12-.276.186-.414.072-.156.144-.312.216-.474l.192-.408c.072-.156.15-.306.222-.462.066-.138.138-.27.204-.402l.234-.456c.072-.132.144-.264.216-.402.078-.15.162-.3.246-.444.072-.132.15-.264.222-.396l.252-.438c.078-.132.156-.258.234-.39.09-.144.174-.288.264-.432.078-.126.156-.252.24-.378.09-.144.186-.282.276-.426.084-.126.162-.252.246-.372.096-.138.192-.276.288-.42l.024-.036c.078-.108.15-.222.228-.33.096-.132.192-.27.288-.402l.054-.072c.072-.096.144-.198.216-.294.096-.132.198-.258.294-.39l.072-.096c.066-.09.138-.18.204-.27.09-.114.18-.228.276-.342l.108-.132.21-.264c.096-.12.192-.234.294-.348l.12-.144.198-.234c.096-.108.192-.216.288-.33l.15-.174c.06-.072.12-.138.186-.21.102-.114.21-.228.312-.342l.156-.168c.054-.06.114-.12.168-.18.132-.138.27-.276.402-.42l.114-.12c.048-.048.09-.096.138-.138.222-.222.444-.438.666-.654.036-.03.066-.066.102-.096l.066-.06c.174-.162.348-.33.522-.486l.18-.162.168-.15.354-.318c.066-.06.138-.114.204-.174l.18-.156c.108-.096.222-.186.33-.282.078-.06.15-.126.228-.186l.168-.138c.114-.09.222-.18.336-.27l.252-.198.156-.12.33-.258c.09-.066.174-.132.264-.198l.162-.12c.108-.078.216-.162.33-.24.096-.072.198-.138.294-.21l.066-.048c.144-.102.276-.192.408-.282l.33-.222.042-.03c.138-.09.27-.18.408-.27.126-.084.252-.162.378-.246.138-.084.276-.174.414-.258.132-.078.258-.156.384-.234.138-.084.276-.168.414-.246l.39-.228.42-.24c.132-.072.264-.144.402-.216.138-.078.282-.15.426-.228.132-.072.27-.138.402-.21l.432-.216.408-.198c.144-.072.288-.138.438-.204.138-.066.276-.126.414-.192a32.236 32.236 0 0 1 1.314-.564l.036-.012c.132-.054.258-.108.39-.156.15-.06.3-.12.45-.174l.048-.018.378-.144c.138-.048.276-.102.408-.15l.126-.048c.114-.042.234-.084.354-.126.132-.048.27-.09.408-.138l.15-.048.342-.108c.132-.042.264-.084.396-.12l.186-.054c.108-.036.216-.066.324-.096l.39-.108.21-.06c.102-.03.21-.06.312-.084.126-.036.258-.066.384-.096l.234-.06.3-.072.39-.09.258-.06c.096-.024.186-.042.282-.066.156-.036.318-.066.48-.096l.222-.042c.078-.018.156-.03.234-.048.306-.06.618-.114.93-.162l.24-.036.264-.042c.144-.024.294-.048.444-.066l.294-.036.264-.036c.132-.018.264-.036.396-.048l.318-.036.246-.024c.132-.012.264-.03.396-.042.114-.012.228-.018.336-.03l.234-.018c.132-.012.258-.018.39-.03l.36-.018.192-.012.408-.018c.132-.006.258-.012.39-.012l.15-.006c.144-.006.288-.006.432-.012.132 0 .27 0 .402-.006H505.584c.144 0 .288.006.426.006h.054c.168.006.33.006.498.012l.486.018c.162.006.33.012.492.024.162.012.324.018.486.03l.498.036c.162.012.33.03.492.042.162.018.33.03.498.048l.492.054.096.012.162.018.132.018.078.012.636.09c.15.024.294.042.444.066.204.03.408.066.612.102l.072.012c.126.024.252.042.378.066l.054.012.108.018c.102.018.21.042.312.066l.282.06c.096.018.186.036.282.06.276.06.552.12.828.186l.186.042c19.632 4.716 32.616 23.394 30.198 43.434l-.024.192-.108.804-.054.36-.108.648c-.024.15-.054.3-.078.45l-.018.102c-.006.054-.018.102-.03.156-.012.072-.03.144-.042.21l-.024.12c-.03.156-.06.306-.096.462-.042.204-.09.408-.132.612l-.024.102c-.024.108-.048.216-.078.33-.054.228-.114.45-.168.678l-.024.108c-.012.06-.03.12-.042.174l-.09.324-.216.756-.03.114c-.084.276-.168.546-.252.816l-.072.222-.27.798-.06.168c-.084.234-.168.462-.258.696l-.066.18-.306.774-.084.21c-.108.258-.216.516-.324.768l-.042.102c-.102.234-.21.468-.324.702l-.096.204c-.114.246-.234.492-.36.732l-.096.192a32.55 32.55 0 0 1-.33.642l-.078.15c-.126.24-.258.474-.39.714l-.12.21c-.132.234-.27.468-.408.702l-.09.15-.366.6-.12.186-.432.666-.132.198c-.138.198-.27.402-.408.6l-.096.138c-.144.21-.294.414-.45.618l-.15.198c-.156.21-.312.42-.474.624l-.138.174c-.138.174-.276.348-.414.516l-.138.168c-.162.198-.33.396-.498.594l-.162.186c-.174.204-.342.396-.516.582l-.168.18c-.084.09-.162.18-.246.27l-.294.312c-3.126 3.33-5.808 5.502-8.166 7.416-4.77 3.864-7.914 6.42-10.356 15.276-.54 1.818-2.214 3.042-4.032 3.042zm-32.244-10.104c-.09.906.54 1.752 1.44 1.92l.078.018.078.024a111.985 111.985 0 0 0 30.168 5.742l.078.006.078.012a1.784 1.784 0 0 0 2.046-1.272c2.64-9.576 6.21-12.468 11.142-16.476 2.304-1.872 4.914-3.99 7.938-7.206l.282-.3.234-.252.156-.174c.162-.18.324-.36.48-.546l.156-.186c.156-.186.318-.372.468-.564l.126-.156c.132-.162.258-.324.39-.486l.126-.162c.15-.192.3-.39.444-.588l.138-.192a20.5 20.5 0 0 0 .42-.582l.09-.126c.132-.186.258-.372.384-.564l.126-.186c.138-.204.27-.414.408-.624l.108-.174c.12-.186.234-.372.348-.564l.084-.138c.126-.216.258-.438.384-.66l.108-.198c.126-.222.246-.444.366-.672l.072-.138c.108-.198.21-.402.312-.606l.09-.174c.114-.234.228-.462.336-.69l.09-.192c.102-.222.204-.444.3-.666l.042-.09c.108-.24.21-.486.306-.726l.084-.198c.096-.24.192-.48.288-.726l.066-.168c.084-.216.162-.432.24-.654l.06-.162.252-.744.066-.21c.084-.252.162-.51.24-.768l.03-.108c.072-.234.138-.474.204-.708l.084-.3c.012-.048.024-.09.036-.132l.036-.132.162-.636.072-.3.024-.102.126-.576.09-.438.03-.144.036-.168.018-.114.024-.132.072-.42c.036-.204.066-.408.102-.612l.054-.342c.036-.252.072-.504.102-.756l.024-.18c2.274-18.864-9.942-36.432-28.416-40.872l-.174-.042c-.258-.06-.516-.12-.78-.174l-.252-.054-.294-.06-.276-.054-.15-.024a7.265 7.265 0 0 0-.354-.06l-.072-.012c-.192-.036-.384-.066-.576-.096-.138-.024-.276-.042-.42-.066-.198-.03-.396-.06-.594-.084l-.198-.03c-.042-.006-.078-.012-.12-.012l-.12-.012-.462-.054c-.156-.018-.312-.03-.468-.048-.156-.012-.306-.03-.462-.042l-.468-.036c-.156-.012-.306-.024-.462-.03-.156-.006-.312-.018-.468-.024l-.456-.018c-.156-.006-.312-.006-.468-.012h-.054c-.132 0-.27-.006-.402-.006h-.546c-.126 0-.246 0-.372.006-.132 0-.27.006-.402.012l-.15.006c-.12.006-.24.006-.36.012l-.378.018-.198.012-.33.018c-.12.006-.24.018-.354.024l-.24.018c-.102.006-.204.018-.306.024l-.36.036-.258.024c-.096.012-.186.018-.282.03-.12.012-.24.03-.36.048l-.276.036-.258.036c-.138.018-.27.042-.408.06l-.276.042c-.066.012-.138.018-.204.03-.294.048-.582.102-.876.156a2.328 2.328 0 0 0-.198.042l-.24.048-.444.09-.246.054-.27.06a6.11 6.11 0 0 0-.354.084c-.09.024-.18.042-.264.066l-.246.06-.354.09c-.096.024-.186.054-.282.078l-.216.06c-.12.036-.24.066-.36.102l-.3.09-.186.054c-.12.036-.246.072-.366.114-.102.036-.21.066-.312.102l-.156.048-.378.126c-.108.036-.216.078-.324.114l-.126.048c-.126.048-.258.09-.384.138-.12.042-.24.09-.354.132l-.048.018c-.144.054-.282.108-.426.168-.12.048-.24.096-.366.15l-.036.012c-.138.06-.282.114-.42.174-.132.054-.264.114-.396.168-.138.06-.276.12-.414.186l-.39.18c-.138.066-.276.126-.414.192l-.384.186c-.138.066-.27.138-.408.204l-.378.198-.402.216c-.126.066-.252.138-.378.204-.132.072-.264.15-.396.222-.126.072-.246.144-.366.216l-.396.234c-.12.072-.246.144-.366.222-.132.078-.258.162-.39.246-.12.078-.24.15-.354.228-.126.084-.258.168-.384.252l-.042.03c-.102.066-.204.138-.306.21a7.996 7.996 0 0 0-.366.258l-.084.06c-.09.066-.18.126-.27.192-.102.072-.204.15-.306.222l-.162.12c-.078.06-.162.12-.24.18l-.306.234-.162.126c-.078.06-.15.12-.228.18-.102.084-.21.168-.312.252l-.174.144c-.066.054-.132.108-.204.162-.102.084-.204.174-.306.258l-.186.162c-.06.048-.12.102-.18.15-.108.096-.222.192-.33.294l-.18.156c-.054.048-.102.09-.15.138-.168.15-.33.306-.492.456l-.156.144c-.21.204-.42.408-.63.618-.036.036-.072.078-.114.114l-.126.132c-.126.132-.252.258-.378.39-.048.054-.096.102-.144.156l-.162.18c-.096.102-.192.21-.288.312-.054.06-.108.126-.162.186l-.156.18c-.09.102-.18.198-.264.3-.06.066-.12.138-.174.21l-.126.15-.27.324c-.066.078-.126.156-.192.24l-.108.138c-.084.108-.168.21-.252.318-.066.078-.126.162-.186.246l-.078.096c-.09.12-.186.24-.276.366l-.198.27-.048.066c-.096.138-.192.264-.282.39l-.216.306-.024.036c-.09.132-.18.258-.27.39-.078.12-.156.234-.234.354-.084.132-.174.264-.258.402-.072.12-.15.234-.222.354-.084.132-.168.27-.252.408-.072.12-.144.24-.216.366-.078.138-.162.27-.24.414l-.21.372a9.359 9.359 0 0 0-.228.42l-.198.378c-.072.144-.15.282-.222.426-.066.126-.126.252-.192.378-.072.144-.144.288-.21.432l-.18.384c-.066.15-.138.294-.204.444-.06.132-.114.258-.174.39-.066.15-.126.3-.192.45-.06.144-.114.264-.162.39-.06.15-.12.306-.18.462l-.024.036c-.048.114-.09.228-.132.348-.054.144-.108.288-.156.432l-.048.132-.108.306c-.054.15-.102.3-.15.45l-.048.138c-.03.096-.066.192-.096.288l-.126.408-.066.216c-.024.084-.054.174-.078.258-.042.138-.078.276-.12.42l-.066.234-.072.246c-.042.15-.078.3-.114.45l-.066.252-.054.204c-.048.198-.096.402-.138.6l-.036.162-.036.156c-.066.306-.132.618-.192.93-.054.288-.102.57-.15.852l-.036.234c-.036.228-.072.462-.102.69l-.024.186-.108.84-.018.186c-.024.228-.048.456-.066.678l-.018.228c-.024.282-.048.564-.06.846v.03c-.018.27-.03.54-.042.816l-.006.234-.018.678v1.002l.006.198.018.66.006.228c.012.276.024.552.042.822l.006.06c.018.258.036.51.06.762l.024.24c.018.216.042.438.066.66l.018.174c.03.27.066.534.102.804l.03.21c.03.21.06.42.096.624l.036.234c.042.264.09.528.138.792l.018.102c.048.234.09.468.144.702l.054.246.144.624.042.174c.06.258.126.51.192.768l.06.222.162.576.066.234c.072.252.15.504.228.75l.048.138c.066.21.138.42.21.624l.084.252c.066.192.138.384.21.582l.066.186c.078.21.162.42.246.63l.09.222c1.626 4.068 3.252 6.972 4.68 9.54 3.084 5.526 5.31 9.516 4.242 19.446l-.03.018z"
    fill="#9BD" />
  <path
    d="M502.224 310.792l-2.304-.444c.018-.09 1.806-9.396 4.41-19.116 1.53-5.73 3.048-10.488 4.494-14.148.072-.186.144-.366.216-.546-2.622-.198-5.838-.798-9.78-2.004a47.668 47.668 0 0 1-2.85-.966c.06 1.62-.018 3.39-.228 5.298-2.748 24.99-3.78 29.916-3.822 30.114l-2.298-.492c.012-.048 1.062-5.136 3.786-29.874.258-2.334.282-4.338.144-6.036-6.024-2.748-7.818-5.802-7.29-8.01.372-1.548 1.908-2.454 3.648-2.148 1.908.33 3.618 1.938 4.698 4.41.528 1.206.9 2.586 1.128 4.134 1.098.45 2.352.9 3.768 1.338 4.086 1.254 7.428 1.836 10.086 1.956 1.464-3.144 2.874-5.136 4.278-6.048 2.364-1.536 4.314-1.02 5.358-.03 1.242 1.188 1.422 3.102.45 4.77-.618 1.05-2.688 3.516-8.568 3.666-1.386 3.258-3.048 8.082-4.956 15.216-2.568 9.636-4.35 18.864-4.368 18.96zm15.018-41.214c-.474 0-1.044.198-1.644.588-.654.426-1.638 1.482-2.928 4.038 2.976-.258 4.728-1.254 5.43-2.448.48-.816.324-1.536-.042-1.884-.21-.198-.492-.294-.816-.294zm-27.558-4.884c-.318 0-.624.102-.696.408-.192.81.87 2.652 4.56 4.62-.786-3.246-2.31-4.776-3.594-5.004a1.964 1.964 0 0 0-.27-.024zM479.796 307.836l-.722 2.233 30.991 10.011.722-2.232-30.991-10.012zM479.173 311.107l-.721 2.232 30.991 10.012.721-2.233-30.991-10.011zM478.546 314.376l-.722 2.232 30.991 10.012.722-2.233-30.991-10.011zM477.93 317.647l-.722 2.233 29.536 9.541.721-2.232-29.535-9.542zM550.106 266.949l-.439 2.304 12.236 2.331.439-2.305-12.236-2.33zM559.509 239.399l-11.762 4.1.773 2.215 11.761-4.1-.772-2.215zM542.179 215.023l-8.136 9.432 1.777 1.532 8.136-9.431-1.777-1.533zM514.972 202.522l-2.331 12.236 2.305.439 2.33-12.236-2.304-.439zM487.381 204.574l-2.216.773 4.101 11.762 2.215-.773-4.1-11.762zM462.299 220.925l-1.533 1.777 9.432 8.136 1.532-1.777-9.431-8.136zM448.749 247.645l-.439 2.304 12.236 2.331.439-2.305-12.236-2.33zM326.406 199.9l-39.456-7.788-19.014-66.288 56.094 7.074 2.376 67.002zm-37.596-9.816l35.148 6.936-2.202-62.046-50.58-6.378 17.634 61.488zm42.396 9.624l-2.928-66.978 55.356-11.49-13.71 67.584-38.718 10.884zm-.498-65.088l2.712 62.022 34.488-9.696 12.714-62.688-49.914 10.362z"
    fill="#9BD" />
  <path
    d="M324.318 199.672l-2.646-66.858 8.946-.354 2.646 66.858-8.946.354zm-.204-64.608l2.46 62.166 4.254-.168-2.46-62.166-4.254.168z"
    fill="#9BD" />
  <path
    d="M325.02 133.852l-.192-4.89.51-.366c.168-.12 4.218-3.036 12.066-5.73 7.188-2.472 19.08-5.214 34.896-4.248l.318.018 4.962 3.348-1.314 1.944-4.434-2.988c-26.358-1.536-41.7 7.344-44.61 9.21l.144 3.606-2.346.096z"
    fill="#9BD" />
  <path
    d="M325.02 133.852l-.144-3.606c-1.356-.726-5.262-2.646-11.424-4.218-7.086-1.812-18.684-3.522-33.78-1.434l-4.182 3.33-1.464-1.836 4.68-3.726.318-.042c15.69-2.214 27.762-.42 35.124 1.47 8.034 2.07 12.306 4.65 12.48 4.758l.534.33.192 4.89-2.334.084z"
    fill="#9BD" />
  <path
    d="M327.156 129.868l-2.262-.636c.126-.462 3.348-11.268 24.828-13.686 20.202-2.268 25.992-6 26.046-6.042l3.408-2.274-1.68 3.726-4.206 9.312-2.142-.966 2.898-6.414c-3.588 1.392-10.818 3.498-24.066 4.986-10.374 1.164-16.038 4.386-18.966 6.876-3.12 2.676-3.852 5.094-3.858 5.118zM329.716 139.509l-6.696.269.094 2.344 6.696-.268-.094-2.345zM329.932 144.981l-6.696.268.093 2.345 6.697-.268-.094-2.345zM331.616 189.025l-6.699.218.077 2.344 6.698-.217-.076-2.345zM331.447 183.524l-6.699.219.077 2.345 6.698-.219-.076-2.345z"
    fill="#9BD" />
  <path
    d="M328.596 131.254c.69-.522 1.428-.966 2.178-1.398.75-.426 1.518-.816 2.298-1.182a47.389 47.389 0 0 1 4.8-1.926l1.23-.396c.408-.132.828-.246 1.242-.36.828-.234 1.662-.45 2.502-.636.834-.204 1.686-.348 2.532-.51a46.645 46.645 0 0 1 2.556-.348c-.816.282-1.638.516-2.46.768l-1.224.378c-.408.126-.822.24-1.224.372-.408.132-.816.258-1.224.378-.408.12-.81.264-1.218.39-.816.252-1.62.528-2.43.798-1.614.552-3.216 1.11-4.812 1.722-1.59.618-3.18 1.242-4.746 1.95zm14.394-3.102c2.106-1.032 4.326-1.812 6.564-2.502a73.672 73.672 0 0 1 6.822-1.722c.576-.114 1.152-.216 1.728-.324l.864-.156.87-.132 1.74-.252a86.322 86.322 0 0 1 1.746-.198c1.164-.144 2.334-.204 3.504-.288.294-.018.582-.036.876-.042l.876-.024c.588-.012 1.17-.024 1.758-.024-1.158.198-2.316.336-3.468.516l-1.728.264c-.288.048-.576.078-.864.132l-.864.144c-.576.096-1.146.192-1.722.276l-1.716.312-.858.15-.858.168c-.57.108-1.146.216-1.71.33-2.28.462-4.548.96-6.81 1.518-2.262.57-4.512 1.164-6.75 1.854zm-17.67 2.676a192.632 192.632 0 0 1-5.334-1.362l-5.304-1.416-5.304-1.398-5.334-1.344c1.842.096 3.672.348 5.484.678 1.812.336 3.606.738 5.382 1.218a81.078 81.078 0 0 1 5.28 1.608c1.734.6 3.456 1.248 5.13 2.016zm-9.606-.216c-2.544-.402-5.082-.84-7.608-1.284l-3.798-.66-1.896-.336-1.896-.324c-1.266-.216-2.532-.444-3.798-.642-.63-.102-1.266-.222-1.896-.318-.636-.096-1.266-.198-1.902-.306a395.842 395.842 0 0 0-7.632-1.116c2.58-.012 5.154.168 7.722.438a115.3 115.3 0 0 1 5.742.768l1.908.306c1.266.234 2.538.456 3.798.708.63.126 1.26.258 1.89.39.63.132 1.26.27 1.884.414 2.514.576 5.016 1.206 7.482 1.962zM257.52 118.084a20.83 20.83 0 0 0-8.652-13.518 20.833 20.833 0 0 0-15.678-3.438l-.414-2.31c6.132-1.092 12.324.264 17.43 3.828 5.112 3.564 8.526 8.898 9.618 15.03l-2.304.408z"
    fill="#9BD" />
  <path
    d="M250.464 119.992c-1.386-7.776-8.844-12.972-16.62-11.586l-.414-2.31c9.048-1.614 17.73 4.434 19.344 13.482l-2.31.414zm-7.056 1.914c-.744-4.17-4.74-6.96-8.916-6.216l-.414-2.31c5.448-.972 10.668 2.67 11.64 8.112l-2.31.414zm-4.29 1.746a2.921 2.921 0 0 1-4.062.726 2.91 2.91 0 0 1-.726-4.056 2.915 2.915 0 0 1 4.056-.726 2.9 2.9 0 0 1 .732 4.056z"
    fill="#9BD" />
  <path
    d="M221.418 410.398c-3.42 0-6.204 2.796-6.204 6.204a6.21 6.21 0 0 0 6.204 6.204H342.06c3.42 0 6.204-2.796 6.204-6.204a6.203 6.203 0 0 0-1.824-4.38 6.182 6.182 0 0 0-4.38-1.824H221.418z"
    fill="#86B1F2" />
  <path
    d="M352.278 410.398H342.06c1.71 0 3.258.702 4.38 1.824a6.203 6.203 0 0 1 1.824 4.38c0 3.408-2.784 6.204-6.204 6.204h10.218c1.71 0 3.258-.702 4.38-1.824a6.203 6.203 0 0 0 1.824-4.38c.006-3.408-2.784-6.204-6.204-6.204z"
    fill="#466EB6" />
  <path d="M320.646 391.408l9.924 18.99h8.262l-9.936-18.99h-8.25z" fill="#355389" />
  <path d="M255.9 391.408l9.918 18.99h64.752l-9.924-18.99H255.9z" fill="#466EB6" />
  <path
    d="M150.51 170.62h274.404c13.986 0 25.326 11.34 25.326 25.338V366.91c0 13.986-11.34 25.338-25.326 25.338H150.51c-13.986 0-25.326-11.352-25.326-25.338V195.958c0-13.998 11.34-25.338 25.326-25.338zm.012 192.678h274.392c9.744 0 17.664-7.932 17.664-17.676V195.958c0-9.744-7.92-17.676-17.664-17.676H150.522c-9.744 0-17.676 7.932-17.676 17.676v149.658c0 9.75 7.932 17.682 17.676 17.682z"
    fill="#86B1F2" />
  <path
    d="M442.572 195.958v149.658c0 7.062-4.152 13.17-10.152 15.99a17.446 17.446 0 0 1-7.512 1.686H150.522c-9.744 0-17.676-7.932-17.676-17.676V195.958c0-8.772 6.432-16.08 14.826-17.442.93-.15 1.884-.234 2.85-.234h274.392c.972 0 1.926.078 2.85.234 8.388 1.362 14.808 8.67 14.808 17.442z"
    fill="#EFEFEF" />
  <mask id="a" style="mask-type:luminance" maskUnits="userSpaceOnUse" x="132" y="178" width="311" height="186">
    <path
      d="M442.572 195.958v149.658c0 7.062-4.152 13.164-10.152 15.99a17.446 17.446 0 0 1-7.512 1.686H150.516c-9.744 0-17.676-7.932-17.676-17.676V195.958c0-9.744 7.932-17.676 17.676-17.676h274.392c9.75 0 17.664 7.932 17.664 17.676z"
      fill="#fff" />
  </mask>
  <g mask="url(#a)">
    <path d="M286.578 233.8v74.502a2.087 2.087 0 0 1-2.082 2.082H149.868a2.087 2.087 0 0 1-2.082-2.082V233.8h138.792z"
      fill="#86B1F2" />
    <path
      d="M286.578 224.392v9.408H147.786v-9.408c0-3.504 2.868-6.378 6.378-6.378H280.2c3.51 0 6.378 2.868 6.378 6.378z"
      fill="#466EB6" />
    <path d="M161.634 225.574a1.849 1.849 0 1 1-3.698-.002 1.849 1.849 0 0 1 3.698.002z" fill="#FE875E" />
    <path
      d="M224.598 293.098h-59.382a.522.522 0 0 1 0-1.044h59.382a.522.522 0 0 1 0 1.044zm0 4.974h-66.66a.522.522 0 0 1 0-1.044h66.66a.522.522 0 0 1 0 1.044zm0 4.674h-66.66a.522.522 0 0 1 0-1.044h66.66a.522.522 0 0 1 0 1.044zm51.36-55.626h-22.554a.522.522 0 0 1 0-1.044h22.554a.522.522 0 0 1 0 1.044zm0 4.98h-25.32a.522.522 0 0 1 0-1.044h25.32a.522.522 0 0 1 0 1.044zm0 4.668h-25.32a.522.522 0 0 1 0-1.044h25.32a.522.522 0 0 1 0 1.044zm0 13.416h-22.554a.522.522 0 0 1 0-1.044h22.554a.522.522 0 0 1 0 1.044zm0 4.98h-25.32a.522.522 0 0 1 0-1.044h25.32a.522.522 0 0 1 0 1.044zm0 4.668h-25.32a.522.522 0 0 1 0-1.044h25.32a.522.522 0 0 1 0 1.044zm0 13.416h-22.554a.522.522 0 0 1 0-1.044h22.554a.522.522 0 0 1 0 1.044zm0 4.98h-25.32a.522.522 0 0 1 0-1.044h25.32a.522.522 0 0 1 0 1.044zm0 4.668h-25.32a.522.522 0 0 1 0-1.044h25.32a.522.522 0 0 1 0 1.044z"
      fill="#13375B" />
    <path d="M171.174 225.574a1.849 1.849 0 1 1-3.698-.002 1.849 1.849 0 0 1 3.698.002z" fill="#FEC65E" />
    <path d="M178.386 227.422a1.848 1.848 0 1 0 .001-3.695 1.848 1.848 0 0 0-.001 3.695z" fill="#96D9C9" />
    <path
      d="M220.02 287.878h-57.51a4.581 4.581 0 0 1-4.578-4.578v-34.194a4.581 4.581 0 0 1 4.578-4.578h57.51a4.581 4.581 0 0 1 4.578 4.578V283.3a4.577 4.577 0 0 1-4.578 4.578zM246.624 244.528h-13.788v13.788h13.788v-13.788zM246.624 267.592h-13.788v13.788h13.788v-13.788zM246.624 290.656h-13.788v13.788h13.788v-13.788z"
      fill="#B6D7FF" />
    <path
      d="M212.496 260.332a2.801 2.801 0 1 1-5.603.001 2.801 2.801 0 0 1 5.603-.001zm-47.232 17.328l15.864-15.864a2.683 2.683 0 0 1 3.798 0l7.812 7.812a2.683 2.683 0 0 0 3.798 0l3.648-3.648a2.683 2.683 0 0 1 3.798 0l11.658 11.658-50.376.042z"
      fill="#466EB6" />
  </g>
  <mask id="b" style="mask-type:luminance" maskUnits="userSpaceOnUse" x="132" y="178" width="311" height="186">
    <path
      d="M442.572 195.958v149.658c0 7.062-4.152 13.164-10.152 15.99a17.446 17.446 0 0 1-7.512 1.686H150.516c-9.744 0-17.676-7.932-17.676-17.676V195.958c0-9.744 7.932-17.676 17.676-17.676h274.392c9.75 0 17.664 7.932 17.664 17.676z"
      fill="#fff" />
  </mask>
  <g mask="url(#b)">
    <path
      d="M248.76 302.602l2.94 2.652c3.84 3.462 9.81 3.156 13.272-.684 3.462-3.84 3.156-9.81-.684-13.272l-2.94-2.652c-3.84-3.462-9.81-3.156-13.272.684-3.462 3.84-3.156 9.81.684 13.272z"
      fill="#FAE0B2" />
    <path
      d="M264.738 295.354c1.764-.294 3.33 3.09 3.036 1.326l-1.506-11.946a3.255 3.255 0 0 0-3.738-2.67 3.255 3.255 0 0 0-2.67 3.738l1.146 6.882a3.25 3.25 0 0 0 3.732 2.67z"
      fill="#FAE0B2" />
    <path
      d="M260.466 292.228a3.264 3.264 0 0 0-.234-4.59l-5.184-4.674a3.264 3.264 0 0 0-4.59.234 3.264 3.264 0 0 0 .234 4.59l5.184 4.674c1.332 1.2 3.396 1.098 4.59-.234z"
      fill="#FAE0B2" />
    <path
      d="M254.49 292.282a3.264 3.264 0 0 0-.234-4.59l-5.184-4.674a3.264 3.264 0 0 0-4.59.234 3.264 3.264 0 0 0 .234 4.59l5.184 4.674a3.258 3.258 0 0 0 4.59-.234z"
      fill="#FAE0B2" />
    <path
      d="M253.008 296.416a3.264 3.264 0 0 0-.234-4.59l-5.184-4.674a3.264 3.264 0 0 0-4.59.234 3.264 3.264 0 0 0 .234 4.59l5.184 4.674a3.264 3.264 0 0 0 4.59-.234z"
      fill="#FAE0B2" />
    <path
      d="M253.26 302.086a3.264 3.264 0 0 0-.234-4.59l-5.184-4.674a3.264 3.264 0 0 0-4.59.234 3.264 3.264 0 0 0 .234 4.59l5.184 4.674a3.253 3.253 0 0 0 4.59-.234z"
      fill="#FAE0B2" />
    <path
      d="M311.418 294.496c14.1-19.542 35.334-23.28 37.938-23.67-18.48 3.216-32.652 18.972-33.414 38.172-.03.546-.042 1.098-.042 1.65v24.168c-31.062 17.43-59.838-24.606-59.838-24.606l14.352-13.326c11.622 12.648 25.974 18.456 41.004-2.388z"
      fill="#3C8F7C" />
    <path
      d="M429.06 342.88c0 25.152-6.282 45.636-25.86 64.506-.672-.198-2.67-.642-7.716-5.514-3.174-3.054-5.358-9.99-5.358-9.99s1.026-1.686 2.478-4.56l-7.098.006-43.974.042-25.038.03a3.625 3.625 0 0 1-3.63-3.864l3.042-48.72v-24.168c0-.552.012-1.104.042-1.65.762-19.2 14.934-34.956 33.414-38.172.09-.012.174-.024.264-.042a40.393 40.393 0 0 1 6.696-.552h14.316c2.274 0 4.506.186 6.678.552a39.97 39.97 0 0 1 8.568 2.424c23.358 8.298 43.17 37.38 43.176 69.672z"
      fill="#50BFA5" />
    <path
      d="M379.368 387.406h-43.98v-.036l7.296-108.852s5.196-8.28 7.482-8.28h14.316c2.274 0 4.506.186 6.678.552l.558 7.95 7.644 108.588.006.078z"
      fill="#F7CC7F" />
    <path
      d="M343.086 272.182l-7.704 128.73-24.162-5.16 9.012-63.606s3.33-20.334 6.372-31.62c3.048-11.28 16.482-28.344 16.482-28.344zm28.074-1.392l8.208 130.056 28.872-3.252s4.284-21.03 8.298-40.77c4.014-19.74.36-54.21-9.66-63.858-10.02-9.648-35.718-22.176-35.718-22.176z"
      fill="#50BFA5" />
    <path
      d="M383.658 309.982s4.572 10.122 7.986 25.842c3.42 15.72-1.512 56.07-1.512 56.07l2.484-4.818s11.232-23.058 9.576-37.236c-1.662-14.19-7.218-26.748-18.534-39.858z"
      fill="#3C8F7C" />
    <path
      d="M250.234 283.623l-.475.475 7.475 7.475.475-.475-7.475-7.475zM244.133 286.453l-.476.475 7.323 7.323.476-.475-7.323-7.323zM244.257 292.447l-.475.475 6.292 6.292.475-.475-6.292-6.292z"
      fill="#FE875E" />
    <path
      d="M274.464 300.598c.006-.024.012-.042.012-.066a.178.178 0 0 0-.012-.06c-.006-.024-.006-.042-.012-.066-.006-.018-.024-.036-.036-.06-.012-.018-.018-.036-.03-.048l-.006-.006-.006-.006-3.552-3.51c-.012-.012-.03-.018-.048-.03-.018-.012-.036-.03-.06-.036a.213.213 0 0 0-.06-.012c-.024-.006-.042-.012-.066-.012s-.042.006-.066.012c-.018.006-.042.006-.06.012-.024.006-.042.024-.06.036l-.048.03-2.646 2.406-1.32 1.194-2.634 2.394-1.314 1.194-6.612 6.006c-.012.012-.018.03-.03.042-.012.018-.03.036-.036.054-.012.018-.018.042-.024.06-.006.018-.012.036-.012.06s0 .042.006.066c0 .018 0 .042.006.06.006.024.018.042.03.06l.018.042 3 4.02.012.012c.006.006.006.012.012.018.018.024.048.036.066.048a.108.108 0 0 0 .042.03c.042.018.09.03.144.03a.36.36 0 0 0 .186-.06c.006-.006.012 0 .018-.006l.012-.012c.006-.006.012-.006.018-.012l6.846-6.222 1.374-1.248 2.748-2.496 1.374-1.248 2.736-2.484.006-.006s.006 0 .006-.006c.012-.012.018-.03.03-.048.012-.018.03-.036.036-.054.006-.03.012-.054.012-.072zm-1.68.708l-3.024-3.078.822-.75 3.072 3.036-.87.792zm-1.368 1.242l-2.982-3.114.828-.75 3.024 3.078-.87.786zm-1.368 1.242l-2.94-3.156.828-.75 2.982 3.12-.87.786zm-1.362 1.242l-2.898-3.198.828-.75 2.94 3.156-.87.792zm-1.368 1.242l-2.856-3.24.828-.75 2.898 3.198-.87.792zm-1.368 1.248l-2.814-3.276.828-.75 2.856 3.24-.87.786zm-1.368 1.242l-2.772-3.318.828-.75 2.814 3.276-.87.792zm-1.368 1.242l-2.724-3.36.822-.75 2.772 3.318-.87.792zm-1.368 1.242l-2.682-3.396.822-.75 2.724 3.36-.864.786zm-1.368 1.242l-2.64-3.438.822-.75 2.682 3.396-.864.792zm-1.362 1.242l-2.598-3.48.822-.75 2.64 3.438-.864.792z"
      fill="#1D135B" />
    <path
      d="M371.76 280.342c-3.504 1.692-8.796 2.52-14.484 2.52-5.928 0-11.232-1.158-14.736-2.976l.48-7.098.042-.594c.006-.006.018-.006.03-.006h-.03s.348-.126.78-.42c.708-.486 1.626-1.422 1.542-2.988-.036-.75-.744-2.904-.744-2.904l-.786-3.018-.012-.036-2.844-10.962 28.53-2.502s-2.442 13.116-2.058 17.976c.258 3.222 3.792 2.91 3.792 2.91l.498 10.098z"
      fill="#FAE0B2" />
    <path
      d="M365.424 257.842s-2.154 11.508-18.114 14.334c-1.008.18-2.976.468-4.284.606l.042-.594c.006-.006.018-.006.03-.006h-.03s.348-.126.78-.42c.708-.486 1.626-1.422 1.542-2.988-.036-.75-.798-3.132-.798-3.132s15.342 1.488 20.832-7.8z"
      fill="#FE875E" />
    <path
      d="M375 240.43c-.474 13.266-8.808 25.524-22.074 25.05-13.266-.474-24.942-.006-25.962-26.778-.708-18.582 11.616-23.628 24.876-23.154 13.272.48 23.64 11.616 23.16 24.882z"
      fill="#FAE0B2" />
    <path
      d="M330.378 230.134c1.05.774 2.664 1.41 5.142 1.674 8.628.912 24.306-6.144 24.306-6.144s-1.536 4.668-1.02 13.104c0 0 2.778-5.352 6.738-.228 3.54 4.602-1.506 10.05-4.53 8.862 0 0-1.404 10.434-6.618 11.376-5.22.942-6.222-3.936-14.028-5.904-7.8-1.974-10.44 2.07-10.44 2.07 6.75 15.924 29.346 10.098 29.346 10.098s2.808 2.82 8.832 2.202c6.024-.618 7.224-13.608 7.224-13.608 4.074 1.452 8.688-6.552 9.396-18.762.708-12.21-10.602-12.576-10.602-12.576s1.35-8.55-11.892-13.332c-12.9-4.656-17.484.36-17.718.624.114-.396 2.616-8.736-4.152-8.862-6.93-.126-6.06 6.972-6.06 6.972-7.728-7.002-18.774 2.538-16.788 10.548 1.986 8.016 11.178 7.176 11.178 7.176s-.918 2.784 1.686 4.71z"
      fill="#13375B" />
    <path
      d="M358.902 231.094s-.354 8.322.078 13.578c.432 5.25.786 10.602-2.592 13.188 0 0 6.462-1.902 4.704-11.226-1.758-9.324-1.242-9.96-.138-12.96 1.11-2.994-2.052-2.58-2.052-2.58z"
      fill="#13375B" />
  </g>
  <path
    d="M442.572 195.958v3.54H132.84v-3.54c0-12.276 10.92-17.676 16.776-17.676H425.91c6.942 0 16.662 6.564 16.662 17.676z"
    fill="#466EB6" />
  <path
    d="M150.834 193.03a4.026 4.026 0 1 0 0-8.052 4.026 4.026 0 0 0 0 8.052zM171.624 193.03a4.027 4.027 0 1 0-.001-8.053 4.027 4.027 0 0 0 .001 8.053zM191.364 193.03a4.027 4.027 0 1 0-.001-8.053 4.027 4.027 0 0 0 .001 8.053z"
    fill="#171C51" />
  <path opacity=".3"
    d="M263.874 363.292h-52.836l-59.586-185.01h52.83l59.592 185.01zM293.934 363.292H278.16l-59.586-185.01h15.762l59.598 185.01zM418.68 363.292h-52.83l-59.592-185.01h52.836l59.586 185.01zM442.572 344.176v1.446c0 7.062-4.152 13.164-10.152 15.99l-59.04-183.324h15.762l53.43 165.888z"
    fill="#fff" />
  <path
    d="M104.166 336.844v72.438c0 4.434 3.606 8.04 8.04 8.04H207.9c4.434 0 8.04-3.606 8.04-8.04v-72.438H104.166zm108.426 69.39c0 3.756-3.06 6.81-6.816 6.81h-90.378c-3.762 0-6.816-3.054-6.816-6.81v-57.438a6.819 6.819 0 0 1 6.816-6.816h90.372a6.823 6.823 0 0 1 6.816 6.816v57.438h.006z"
    fill="#9386F2" />
  <path
    d="M212.592 348.796v57.438c0 3.756-3.06 6.81-6.816 6.81h-90.378c-3.762 0-6.816-3.054-6.816-6.81v-57.438a6.819 6.819 0 0 1 6.816-6.816h90.372c3.756 0 6.822 3.06 6.822 6.816z"
    fill="#BDB8FF" />
  <path d="M215.94 328.57v8.274H104.166v-8.274c0-4.434 3.606-8.04 8.04-8.04H207.9c4.434 0 8.04 3.612 8.04 8.04z"
    fill="#5546B6" />
  <path d="M201.678 328.156a1.95 1.95 0 1 0 3.9 0 1.95 1.95 0 0 0-3.9 0z" fill="#96D9C9" />
  <path d="M191.604 328.156a1.95 1.95 0 1 0 3.9 0 1.95 1.95 0 0 0-3.9 0z" fill="#FEC65E" />
  <path
    d="M161.856 355.978c-.036.216-.228.462-.438.768-.252.36-.528.804-.57 1.326-.144 1.542-2.778 3.048-2.778 3.048l-6.234-.138s.108-.546.102-1.356c-.012-.864-.162-2.034-.738-3.156a.213.213 0 0 0-.024-.054c-1.146-2.184 7.452-1.536 9.672-1.104.84.174 1.068.378 1.008.666z"
    fill="#FAE0B2" />
  <path
    d="M162.198 355.966s-.24.324-.774.78c-1.254 1.062-4.146 2.844-9.48 2.886-.012-.864-.162-2.034-.738-3.156 1.074-.336 2.238-.54 3.21-.51 3.228.09 6.42.036 7.446.012.216-.006.336-.012.336-.012z"
    fill="#FE875E" />
  <path
    d="M143.964 348.07c1.188 5.802 5.754 10.584 11.556 9.396 5.802-1.188 10.974-1.842 9.45-13.692-1.056-8.226-6.852-9.54-12.654-8.358-5.796 1.188-9.54 6.852-8.352 12.654z"
    fill="#FAE0B2" />
  <path
    d="M152.694 357.742s10.374.9 12.168-6.606c0 0-1.458-1.584-4.746-.144-3.288 1.44-3.372 3.66-5.736 3.63-2.364-.03-3.75-4.518-3.75-4.518-1.248.744-3.864-1.278-2.646-3.564 1.362-2.55 2.982-.396 2.982-.396-.39-3.75-1.416-5.694-1.416-5.694s7.416 1.95 11.148.912a5.54 5.54 0 0 0 2.136-1.116c.42-.342.798-.696 1.128-1.062 3.084-3.396.48-8.856-4.104-8.724-2.454.072-5.658 0-9.516.648-8.472 1.422-7.398 7.542-7.398 7.542l.066 1.368s-3.3.768-1.542 6.342c1.77 5.586 4.998 11.454 11.226 11.382z"
    fill="#13375B" />
  <path
    d="M150.36 342.778s.768 3.636.966 5.982c.198 2.346.438 4.722 2.112 5.61 0 0-2.982-.36-2.898-4.59.09-4.23-.186-4.476-.894-5.712-.708-1.242.714-1.29.714-1.29z"
    fill="#13375B" />
  <path
    d="M150.432 343.072s.762 3.648.954 6c.192 2.352.372 4.422 2.052 5.322 0 0-2.94-.06-2.838-4.302.096-4.242-.18-4.488-.882-5.73-.708-1.242.714-1.29.714-1.29z"
    fill="#171C51" />
  <path
    d="M161.406 393.184c-.906-.27-1.452-.336-2.562-.102-.894.18-1.926 1.02-2.28 1.32-.084.066-.132.114-.132.114l.306.978.894 2.868.156.498c-2.34.432-4.56.636-6.654.636a33.472 33.472 0 0 1-2.238-.084l.612-8.016.366-4.776 1.602-20.994.354-4.644 5.814-.132c0 .048-.006.084-.006.132a865.174 865.174 0 0 0-.306 6.06c-.138 2.97-.306 6.69-.522 11.334-.222 4.644.492 8.244 1.824 10.986.75 1.536 1.692 2.796 2.772 3.822z"
    fill="#183055" />
  <path d="M151.482 360.982v4.644c1.524 1.524 3.798 1.698 5.862 1.422.12-2.532.222-4.65.312-6.192l-6.174.126z"
    fill="#FAE0B2" />
  <path
    d="M135.852 394.114s4.722-33 15.984-33.126l-2.322 30.426c1.524.834 3.9 1.902 6.708 2.376l1.572 5.064s-4.74.972-8.892.594l-1.05 13.77-.486 6.354-13.518-1.686 2.004-23.772z"
    fill="#355389" />
  <path
    d="M135.852 394.114c3.12 2.988 7.566 4.896 13.05 5.298l2.934-38.424-2.304.054s-16.608 3.486-18.546 17.442c-.882 6.372.936 11.862 4.866 15.63z"
    fill="#355389" />
  <path
    d="M149.88 386.62l-.366 4.776c-1.194-.642-2.382-1.422-3.426-2.322-4.962-4.248-3.672-10.134-3.672-10.134.18 3.582 3.738 6.06 7.464 7.68z"
    fill="#183055" />
  <path
    d="M161.406 393.184s-1.884 1.452-4.842 1.224c-.348-.03-.138-.612-.96-.732-1.392-.21-3.756-.996-6.09-2.274l.366-4.776c4.206 1.818 8.616 2.544 8.616 2.544l.15.204 2.76 3.81z"
    fill="#F48C7F" />
  <path
    d="M165.396 413.224h-17.55l.942-12.372.114-1.434v-.006l.438.036c.048 0 .102.006.15.006a34.272 34.272 0 0 0 1.65.048c2.094 0 4.314-.21 6.654-.636l-.156-.498c.204.042.408.072.618.102.162.03.33.048.498.066.114.018.234.03.348.042.216.024.438.042.654.048.03.006.054.012.084.006.276.024.552.036.828.036.9.024 1.788-.018 2.616-.096.144-.012.276-.03.414-.048.156-.018.318-.036.468-.06a5.45 5.45 0 0 0 .33-.048v.006l.144 2.364.756 12.438z"
    fill="#183055" />
  <path
    d="M177.654 395.236l1.5 16.344.306 4.944-13.668 3.054-.39-6.354-.906-14.814-2.292-37.428c10.158 1.476 15.45 34.254 15.45 34.254z"
    fill="#355389" />
  <path
    d="M156.438 394.516l.306.978.894 2.862c4.824.924 10.686-.426 10.686-1.434 0-.066 0-.126-.006-.174-.006-.06-.006-.108-.012-.156-.072-.012-.138-.03-.204-.042-2.478-.51-4.8-1.578-6.69-3.372-.006 0-.006 0-.006-.006a5.586 5.586 0 0 0-.912-.21h-.006c-.48-.066-.954-.036-1.644.108-1.104.24-2.406 1.446-2.406 1.446z"
    fill="#FAE0B2" />
  <path
    d="M161.406 393.184l.006.006c.912.276 1.932 1.968 4.26 2.616 2.022.564 1.374.498 2.634.792.39.078.78.138 1.17.186a19.84 19.84 0 0 0 2.676.144 10.172 10.172 0 0 0 5.496-1.686c4.956-3.27 7.464-11.034 2.856-20.934-6.114-13.14-17.412-13.446-17.412-13.446a63.456 63.456 0 0 1-.216-1.224h-5.094l-.066-.006h-.006c-.024.372-.048.786-.072 1.23-.192 3.348-.42 8.796-.834 17.526-.324 7.224 1.584 11.934 4.602 14.796z"
    fill="#355389" />
  <path
    d="M157.728 359.626l.066.006h5.094c3.564 0 4.176-8.256 3.576-9.27a1.556 1.556 0 0 0-.552-.564c-.732-.414-1.812-.054-2.514 2.292-.918 3.06-5.094 2.754-5.406 4.674-.096.582-.18 1.488-.264 2.862z"
    fill="#FAE0B2" />
  <path
    d="M160.488 392.968s.798 2.07 3.648 3.138c2.856 1.068 4.176.642 4.176.642l-.216-.198c-2.478-.51-4.8-1.578-6.69-3.372-.006 0-.006 0-.006-.006a7.721 7.721 0 0 0-.912-.204z"
    fill="#FE875E" />
  <path
    d="M148.902 399.418l-.114 1.434c-9.3-.858-13.23-3.012-13.23-3.012l.288-3.726c3.126 2.994 7.572 4.896 13.056 5.304zm28.908-2.448s-3.846 2.73-13.176 3.81l-.144-2.364c2.226-.342 3.834-.966 3.834-1.494 0-.06 0-.126-.006-.174.378.018.768.03 1.158.03a18.99 18.99 0 0 0 2.682.144c1.986-.03 3.87-.618 5.496-1.692l.156 1.74z"
    fill="#183055" />
  <path
    d="M164.64 400.78a69.951 69.951 0 0 1-7.86.426 88.49 88.49 0 0 1-7.986-.348l.114-1.434c.144.012.288.018.438.03.048 0 .102.006.15.006a34.272 34.272 0 0 0 1.65.048c2.094 0 4.314-.21 6.654-.636l-.156-.498c.204.042.408.072.618.102.162.03.33.048.498.066.114.018.234.03.348.042.216.024.438.042.654.048.03.006.054.012.084.006.276.024.552.036.828.036.9.024 1.788-.018 2.616-.096.144-.012.276-.03.414-.048.156-.018.318-.036.468-.06.114-.006.222-.024.33-.042l.138 2.352z"
    fill="#F49C7F" />
  <path
    d="M157.788 399.01a.148.148 0 0 1-.144-.108l-1.596-5.088a.148.148 0 0 1 .282-.09l1.596 5.088a.148.148 0 0 1-.096.186c-.012.012-.024.012-.042.012zm-1.566.246a.148.148 0 0 1-.144-.108l-1.686-5.676a.152.152 0 0 1 .102-.186.152.152 0 0 1 .186.102l1.686 5.676a.152.152 0 0 1-.102.186c-.012.006-.03.006-.042.006zm6.66-39.474l-5.16-.006a.149.149 0 0 1-.15-.15c0-.084.066-.15.15-.15l5.16.006c.084 0 .15.066.15.15 0 .084-.066.15-.15.15zm-5.208 1.488a.149.149 0 0 1-.15-.15c0-.084.066-.15.15-.15l5.43-.006c.084 0 .15.066.15.15 0 .084-.066.15-.15.15l-5.43.006z"
    fill="#171C51" />
  <path
    d="M156.192 393.922a.152.152 0 0 0 .036-.3l-1.662-.348a.155.155 0 0 0-.18.114.152.152 0 0 0 .114.18l1.662.348a.065.065 0 0 0 .03.006zm.15.462a.154.154 0 0 0 .15-.126c.012-.084-.042-.162-.12-.174l-1.65-.294c-.084-.012-.162.042-.174.12-.012.084.042.162.12.174l1.65.294c.006.006.012.006.024.006zm.144.462a.154.154 0 0 0 .15-.132.15.15 0 0 0-.126-.168l-1.644-.24a.15.15 0 0 0-.168.126.15.15 0 0 0 .126.168l1.644.24c0 .006.012.006.018.006zm.144.462a.15.15 0 0 0 .15-.132c.012-.084-.048-.156-.132-.168l-1.632-.186a.154.154 0 0 0-.168.132c-.012.084.048.156.132.168l1.632.186h.018zm.144.462a.15.15 0 0 0 .012-.3l-1.626-.132a.15.15 0 0 0-.162.138.15.15 0 0 0 .138.162l1.626.132h.012zm.144.468a.156.156 0 0 0 .15-.144.145.145 0 0 0-.144-.156l-1.62-.078c-.078 0-.156.06-.156.144a.145.145 0 0 0 .144.156l1.62.078h.006zm.144.462c.084 0 .15-.066.15-.15a.149.149 0 0 0-.15-.15l-1.608-.024a.149.149 0 0 0-.15.15c0 .084.066.15.15.15l1.608.024zm.15.462c.084 0 .15-.072.15-.156a.149.149 0 0 0-.15-.15h-.006l-1.602.03a.154.154 0 0 0-.15.156c0 .084.066.15.15.15h.006l1.602-.03zm.15.462a.157.157 0 0 0 .144-.156.153.153 0 0 0-.156-.144l-1.59.084a.157.157 0 0 0-.144.156.156.156 0 0 0 .15.144h.006l1.59-.084zm.15.462a.15.15 0 0 0 .138-.162.153.153 0 0 0-.162-.138l-1.584.138a.15.15 0 1 0 .012.3h.012l1.584-.138zm.15.462c.084-.012.144-.084.132-.168a.154.154 0 0 0-.168-.132l-1.578.192c-.084.012-.144.084-.132.168a.15.15 0 0 0 .15.132h.018l1.578-.192zm.102.162l-1.566.246a.15.15 0 0 0-.126.174.154.154 0 0 0 .15.126h.024l1.566-.246a.15.15 0 0 0 .126-.174.15.15 0 0 0-.174-.126zm-.09-37.44c.084 0 .15-.066.156-.144l.048-1.494c0-.084-.06-.15-.144-.156-.084-.006-.15.06-.156.144l-.048 1.494c-.006.084.06.15.144.156zm.522-1.794a.149.149 0 0 0-.15.15l-.024 1.494c0 .084.066.15.15.156.084 0 .15-.066.15-.15l.024-1.494a.154.154 0 0 0-.15-.156zm.468 0a.149.149 0 0 0-.15.15v1.488c0 .084.066.15.15.15.084 0 .15-.066.15-.15v-1.488a.149.149 0 0 0-.15-.15zm.468 0a.154.154 0 0 0-.15.156l.024 1.488c0 .084.066.15.15.15.084 0 .15-.072.15-.156l-.024-1.488a.149.149 0 0 0-.15-.15zm.462 0a.145.145 0 0 0-.144.156l.054 1.488c0 .084.072.144.15.144h.006c.084 0 .15-.072.144-.156l-.054-1.488a.149.149 0 0 0-.156-.144zm.468 0c-.084.006-.15.078-.144.156l.078 1.488a.156.156 0 0 0 .15.144h.006c.084-.006.15-.078.144-.156l-.078-1.488c0-.084-.078-.144-.156-.144zm.468.006a.15.15 0 0 0-.138.162l.102 1.488a.15.15 0 0 0 .15.138h.012a.15.15 0 0 0 .138-.162l-.102-1.488a.15.15 0 0 0-.162-.138zm.462 0a.15.15 0 0 0-.138.162l.126 1.482a.15.15 0 0 0 .15.138h.012a.15.15 0 0 0 .138-.162l-.126-1.482c-.006-.084-.078-.15-.162-.138zm.468 0a.146.146 0 0 0-.132.168l.15 1.482a.15.15 0 0 0 .15.138h.018a.146.146 0 0 0 .132-.168l-.15-1.482c-.012-.09-.084-.15-.168-.138zm.468 0c-.084.012-.144.084-.132.168l.174 1.482a.15.15 0 0 0 .15.132h.018c.084-.012.144-.084.132-.168l-.174-1.482c-.012-.084-.084-.144-.168-.132zm.468 0a.154.154 0 0 0-.132.168l.198 1.482a.15.15 0 0 0 .15.132h.018a.154.154 0 0 0 .132-.168l-.198-1.482c-.012-.084-.084-.144-.168-.132zm.636.126a.15.15 0 0 0-.174-.126.15.15 0 0 0-.126.174l.222 1.476a.154.154 0 0 0 .15.126h.024a.15.15 0 0 0 .126-.174l-.222-1.476z"
    fill="#171C51" />
  <path
    d="M163.098 360.856s4.374 15.084 6.762 17.418c2.382 2.34 3.534-.816 3.534-.816l-.612 8.256c-.006 0-7.056-4.74-9.684-24.858z"
    fill="#183055" />
  <path d="M182.046 328.156a1.95 1.95 0 1 0 3.9 0 1.95 1.95 0 0 0-3.9 0z" fill="#FE875E" />
  <path
    d="M173.1 407.626a3.366 3.366 0 1 0 0-6.732 3.366 3.366 0 0 0 0 6.732zM153.87 402.418a5.21 5.21 0 0 0 5.208 5.208 5.21 5.21 0 0 0 5.208-5.208 5.207 5.207 0 1 0-10.416 0zM147.006 407.626a3.366 3.366 0 1 0 0-6.732 3.366 3.366 0 0 0 0 6.732z"
    fill="#fff" />
  <path
    d="M66.594 141.052v72.438c0 4.434 3.606 8.04 8.04 8.04h95.694c4.434 0 8.04-3.606 8.04-8.04v-72.438H66.594zm3.348 11.952a6.823 6.823 0 0 1 6.816-6.816h90.372a6.819 6.819 0 0 1 6.816 6.816v57.438c0 3.756-3.054 6.81-6.816 6.81H76.758c-3.756 0-6.816-3.054-6.816-6.81v-57.438z"
    fill="#98F286" />
  <path
    d="M69.942 153.004v57.438c0 3.756 3.06 6.81 6.816 6.81h90.372c3.762 0 6.816-3.054 6.816-6.81v-57.438a6.819 6.819 0 0 0-6.816-6.816H76.758c-3.756 0-6.816 3.06-6.816 6.816z"
    fill="#C5FFB6" />
  <path d="M66.594 132.778v8.274h111.774v-8.274c0-4.434-3.606-8.04-8.04-8.04H74.634c-4.434 0-8.04 3.612-8.04 8.04z"
    fill="#54B646" />
  <path d="M80.856 132.364a1.95 1.95 0 1 1-3.9 0 1.95 1.95 0 0 1 3.9 0z" fill="#FE875E" />
  <path d="M90.924 132.364a1.95 1.95 0 1 1-3.9 0 1.95 1.95 0 0 1 3.9 0z" fill="#FEC65E" />
  <path d="M100.488 132.364a1.95 1.95 0 1 1-3.9 0 1.95 1.95 0 0 1 3.9 0z" fill="#96D9C9" />
  <path
    d="M129.486 137.464c4.326 1.194 7.314 7.866 8.604 16.71 1.29 8.838 7.638 19.932 2.436 23.556-5.202 3.624-15.294-2.532-21.756 4.578s-16.842 8.856-16.842 8.856-7.092-4.44-6.174-19.488c.918-15.048 11.25-10.992 14.928-17.586 3.678-6.6 4.194-20.658 18.804-16.626z"
    fill="#13375B" />
  <path
    d="M116.382 157.636l10.95.648-.972 4.23-.006.012-.27 1.164-.252 1.122-.054.234-1.278.294.948.732s-.228 1.728-3.612 2.106c-3.384.378-4.77-1.14-4.77-1.14l-.684-9.402z"
    fill="#FAE0B2" />
  <path
    d="M115.668 154.39c.324 5.076 3.57 8.928 8.568 9.834 3.828.69 6.522-1.182 9.798-11.016 1.608-4.824-4.704-8.922-9.774-8.592-5.07.324-8.916 4.698-8.592 9.774z"
    fill="#FAE0B2" />
  <path
    d="M120.522 164.866c1.002.786 2.472 1.47 4.62 1.842 0 0 .216-.222.3-.636a4.62 4.62 0 0 1 .078-.3 25.12 25.12 0 0 1 .498-1.446s-5.88-.036-7.662-3.762c.006 0-.24 2.43 2.166 4.302z"
    fill="#FE875E" />
  <path
    d="M115.278 152.26s11.82 2.52 17.25-4.278c0 0-3.396 4.848-6.138 4.68 0 0 3.948.756 6.222-3.888 0 0 1.212 3.906 3.288 4.5 0 0 .57-11.316-9.156-11.628-9.726-.318-11.49 6.174-11.466 10.614z"
    fill="#13375B" />
  <path
    d="M115.428 167.248l-3.906 55.476-9.366-1.056s-1.842-9.024-3.564-17.496-.156-23.268 4.146-27.408c4.308-4.134 12.69-9.516 12.69-9.516z"
    fill="#F8C558" />
  <path
    d="M171.744 180.142l-1.284 1.398a4.516 4.516 0 0 1-6.366.264 4.516 4.516 0 0 1-.264-6.366l1.284-1.398a4.516 4.516 0 0 1 6.366-.264c1.818 1.674 1.938 4.542.264 6.366z"
    fill="#FAE0B2" />
  <path
    d="M163.794 177.394c-.852-.06-1.452 1.62-1.392.768l.186-5.772c.06-.852.81-1.506 1.662-1.44.852.06 1.506.81 1.44 1.668l-.24 3.336a1.552 1.552 0 0 1-1.656 1.44z"
    fill="#FAE0B2" />
  <path
    d="M165.69 175.714a1.562 1.562 0 0 1-.09-2.202l2.268-2.46a1.562 1.562 0 0 1 2.202-.09c.63.582.672 1.572.09 2.202l-2.268 2.46a1.573 1.573 0 0 1-2.202.09z"
    fill="#FAE0B2" />
  <path
    d="M168.546 175.468a1.562 1.562 0 0 1-.09-2.202l2.268-2.46a1.562 1.562 0 0 1 2.202-.09c.63.582.672 1.572.09 2.202l-2.268 2.46a1.562 1.562 0 0 1-2.202.09z"
    fill="#FAE0B2" />
  <path
    d="M169.44 177.376a1.562 1.562 0 0 1-.09-2.202l2.268-2.46a1.562 1.562 0 0 1 2.202-.09c.63.582.672 1.572.09 2.202l-2.268 2.46a1.562 1.562 0 0 1-2.202.09z"
    fill="#FAE0B2" />
  <path
    d="M169.572 180.094a1.562 1.562 0 0 1-.09-2.202l2.268-2.46a1.562 1.562 0 0 1 2.202-.09c.63.582.672 1.572.09 2.202l-2.268 2.46a1.562 1.562 0 0 1-2.202.09z"
    fill="#FAE0B2" />
  <path
    d="M170.177 171.14l-3.234 3.904.249.207 3.235-3.904-.25-.207zM173.225 172.24l-3.167 3.82.25.206 3.167-3.819-.25-.207zM173.435 175.106l-2.723 3.284.249.207 2.723-3.284-.249-.207z"
    fill="#FE875E" />
  <path
    d="M107.472 229.228l-1.218-1.452c-1.596-1.896-1.344-4.752.552-6.348 1.896-1.596 4.752-1.344 6.348.552l1.218 1.452c1.596 1.896 1.344 4.752-.552 6.348a4.513 4.513 0 0 1-6.348-.552z"
    fill="#FAE0B2" />
  <path
    d="M111.216 221.698c.168-.84-1.422-1.65-.582-1.476l5.7.924c.84.168 1.386.996 1.218 1.836a1.563 1.563 0 0 1-1.836 1.218l-3.282-.666a1.563 1.563 0 0 1-1.218-1.836z"
    fill="#FAE0B2" />
  <path
    d="M112.638 223.792a1.56 1.56 0 0 1 2.196.192l2.154 2.562a1.56 1.56 0 0 1-2.388 2.004l-2.154-2.562a1.57 1.57 0 0 1 .192-2.196z"
    fill="#FAE0B2" />
  <path
    d="M112.518 226.66a1.56 1.56 0 0 1 2.196.192l2.154 2.562a1.56 1.56 0 0 1-2.388 2.004l-2.154-2.562a1.56 1.56 0 0 1 .192-2.196z"
    fill="#FAE0B2" />
  <path
    d="M110.514 227.302a1.56 1.56 0 0 1 2.196.192l2.154 2.562a1.56 1.56 0 0 1-2.388 2.004l-2.154-2.562a1.559 1.559 0 0 1 .192-2.196z"
    fill="#FAE0B2" />
  <path
    d="M107.796 227.086a1.56 1.56 0 0 1 2.196.192l2.154 2.562a1.56 1.56 0 0 1-2.388 2.004l-2.154-2.562a1.564 1.564 0 0 1 .192-2.196z"
    fill="#FAE0B2" />
  <path
    d="M113.138 225.129l-.237.221 3.458 3.708.237-.221-3.458-3.708zM111.75 228.076l-.238.221 3.383 3.631.237-.221-3.382-3.631zM109.357 228.424l-.237.221 2.908 3.121.237-.221-2.908-3.121z"
    fill="#FE875E" />
  <path
    d="M143.706 177.424c-6.048-8.388-15.162-9.99-16.278-10.158 7.932 1.38 14.01 8.142 14.34 16.38.012.234.018.474.018.708v10.374c13.332 7.482 25.68-10.56 25.68-10.56l-6.162-5.718c-4.986 5.43-11.142 7.92-17.598-1.026z"
    fill="#B75742" />
  <path
    d="M93.222 198.19c0 10.794 2.694 19.584 11.1 27.684.288-.084 1.146-.276 3.312-2.364 1.362-1.308 2.298-4.284 2.298-4.284s-.438-.72-1.062-1.956h3.048l18.87.018 10.746.012c.9 0 1.614-.756 1.56-1.656l-1.302-20.91V184.36c0-.24-.006-.474-.018-.708-.324-8.238-6.408-15-14.34-16.38l-.114-.018a17.47 17.47 0 0 0-2.874-.24h-6.144c-.972 0-1.932.078-2.868.24a16.9 16.9 0 0 0-3.678 1.044c-10.026 3.552-18.528 16.032-18.534 29.892z"
    fill="#F47458" />
  <path
    d="M111.906 217.3h18.876v-.012l-3.132-46.716-.222-3.3-.114-.018a17.47 17.47 0 0 0-2.874-.24h-6.144c-.972 0-1.932.078-2.868.24l-.24 3.414-3.282 46.602v.03z"
    fill="#F8C558" />
  <path
    d="M115.188 170.662c1.506.726 3.696 4.86 6.132 4.86 2.55 0 4.824-4.176 6.33-4.956 0 0-2.514-.834-2.124-4.206a4.62 4.62 0 0 0-.078.3c-.084.414-.3.636-.3.636-2.148-.372-3.618-1.056-4.62-1.842a6.167 6.167 0 0 0-.732-.21c-.96-.174-2.97-.702-2.862.24.294 2.802-1.746 5.178-1.746 5.178z"
    fill="#FAE0B2" />
  <path
    d="M127.428 167.266l3.354 55.824 14.514-1.8-3.87-27.3s-5.574-9.138-6.882-13.98c-1.302-4.842-7.116-12.744-7.116-12.744z"
    fill="#F47458" />
  <path
    d="M112.71 184.066s-1.962 4.344-3.426 11.088c-1.464 6.744.648 24.06.648 24.06l-1.062-2.07s-4.818-9.894-4.11-15.978c.708-6.078 3.09-11.472 7.95-17.1z"
    fill="#B75742" />
  <path
    d="M109.434 211.834a3.366 3.366 0 1 0 0-6.732 3.366 3.366 0 0 0 0 6.732zM128.664 206.626a5.21 5.21 0 0 1-5.208 5.208 5.21 5.21 0 0 1-5.208-5.208 5.21 5.21 0 0 1 5.208-5.208 5.21 5.21 0 0 1 5.208 5.208zM135.522 211.834a3.366 3.366 0 1 0 0-6.732 3.366 3.366 0 0 0 0 6.732z"
    fill="#fff" />
  <path
    d="M401.61 147.388v72.438c0 4.434 3.606 8.04 8.04 8.04h95.694c4.434 0 8.04-3.606 8.04-8.04v-72.438H401.61zm108.426 69.396c0 3.756-3.06 6.81-6.816 6.81h-90.378c-3.762 0-6.816-3.054-6.816-6.81v-57.438a6.819 6.819 0 0 1 6.816-6.816h90.378a6.823 6.823 0 0 1 6.816 6.816v57.438z"
    fill="#F286CB" />
  <path
    d="M510.036 159.346v57.438c0 3.756-3.06 6.81-6.816 6.81h-90.378c-3.762 0-6.816-3.054-6.816-6.81v-57.438a6.819 6.819 0 0 1 6.816-6.816h90.378c3.75 0 6.816 3.054 6.816 6.816z"
    fill="#FFB6E8" />
  <path d="M513.384 139.12v8.274H401.61v-8.274c0-4.434 3.606-8.04 8.04-8.04h95.694c4.434 0 8.04 3.606 8.04 8.04z"
    fill="#B6468A" />
  <path d="M501.072 140.656a1.95 1.95 0 1 0 0-3.9 1.95 1.95 0 0 0 0 3.9z" fill="#FE875E" />
  <path d="M489.048 138.706a1.95 1.95 0 1 0 3.9 0 1.95 1.95 0 0 0-3.9 0z" fill="#FEC65E" />
  <path d="M481.44 140.656a1.95 1.95 0 1 0 0-3.9 1.95 1.95 0 0 0 0 3.9z" fill="#96D9C9" />
  <path
    d="M464.544 173.59l3.906 55.476 9.366-1.056s1.842-9.024 3.564-17.496.156-23.268-4.146-27.402c-4.302-4.146-12.69-9.522-12.69-9.522z"
    fill="#6D58F4" />
  <path
    d="M408.234 186.478l1.284 1.398a4.516 4.516 0 0 0 6.366.264 4.516 4.516 0 0 0 .264-6.366l-1.284-1.398a4.516 4.516 0 0 0-6.366-.264 4.516 4.516 0 0 0-.264 6.366z"
    fill="#FAE0B2" />
  <path
    d="M416.184 183.73c.852-.06 1.452 1.62 1.392.768l-.186-5.772a1.559 1.559 0 0 0-3.108.222l.24 3.336c.06.858.81 1.512 1.662 1.446z"
    fill="#FAE0B2" />
  <path
    d="M414.288 182.05c.63-.582.672-1.572.09-2.202l-2.268-2.46a1.562 1.562 0 0 0-2.202-.09 1.562 1.562 0 0 0-.09 2.202l2.268 2.46c.582.63 1.572.672 2.202.09z"
    fill="#FAE0B2" />
  <path
    d="M411.426 181.81c.63-.582.672-1.572.09-2.202l-2.268-2.46a1.562 1.562 0 0 0-2.202-.09 1.562 1.562 0 0 0-.09 2.202l2.268 2.46c.582.63 1.572.666 2.202.09z"
    fill="#FAE0B2" />
  <path
    d="M410.538 183.718c.63-.582.672-1.572.09-2.202l-2.268-2.46a1.562 1.562 0 0 0-2.202-.09 1.562 1.562 0 0 0-.09 2.202l2.268 2.46a1.573 1.573 0 0 0 2.202.09z"
    fill="#FAE0B2" />
  <path
    d="M410.406 186.436c.63-.582.672-1.572.09-2.202l-2.268-2.46a1.562 1.562 0 0 0-2.202-.09 1.562 1.562 0 0 0-.09 2.202l2.268 2.46c.582.63 1.572.672 2.202.09z"
    fill="#FAE0B2" />
  <path
    d="M409.789 177.507l-.249.207 3.237 3.902.249-.206-3.237-3.903zM406.75 178.539l-.25.207 3.168 3.82.249-.207-3.167-3.82zM406.528 181.439l-.249.207 2.722 3.285.249-.207-2.722-3.285z"
    fill="#FE875E" />
  <path
    d="M472.5 235.57l1.218-1.452c1.596-1.896 1.344-4.752-.552-6.348-1.896-1.596-4.752-1.344-6.348.552l-1.218 1.452c-1.596 1.896-1.344 4.752.552 6.348 1.896 1.596 4.758 1.344 6.348-.552z"
    fill="#FAE0B2" />
  <path
    d="M468.756 228.04c-.168-.84 1.422-1.65.582-1.476l-5.7.924a1.563 1.563 0 0 0-1.218 1.836c.168.84.996 1.386 1.836 1.218l3.282-.666a1.564 1.564 0 0 0 1.218-1.836z"
    fill="#FAE0B2" />
  <path
    d="M467.334 230.134a1.56 1.56 0 0 0-2.196.192l-2.154 2.562a1.56 1.56 0 0 0 2.388 2.004l2.154-2.562a1.565 1.565 0 0 0-.192-2.196z"
    fill="#FAE0B2" />
  <path
    d="M467.46 233.002a1.56 1.56 0 0 0-2.196.192l-2.154 2.562a1.56 1.56 0 0 0 2.388 2.004l2.154-2.562c.552-.66.462-1.65-.192-2.196z"
    fill="#FAE0B2" />
  <path
    d="M469.464 233.638a1.56 1.56 0 0 0-2.196.192l-2.154 2.562a1.56 1.56 0 0 0 2.388 2.004l2.154-2.562a1.565 1.565 0 0 0-.192-2.196z"
    fill="#FAE0B2" />
  <path
    d="M472.176 233.422a1.56 1.56 0 0 0-2.196.192l-2.154 2.562a1.56 1.56 0 0 0 2.388 2.004l2.154-2.562a1.56 1.56 0 0 0-.192-2.196z"
    fill="#FAE0B2" />
  <path
    d="M466.839 231.44l-3.456 3.71.237.22 3.456-3.709-.237-.221zM468.22 234.44l-3.382 3.631.237.22 3.382-3.63-.237-.221zM470.616 234.789l-2.908 3.122.237.221 2.908-3.122-.237-.221z"
    fill="#FE875E" />
  <path
    d="M436.266 183.766c6.048-8.388 15.162-9.99 16.278-10.158-7.932 1.38-14.01 8.142-14.34 16.38a13.94 13.94 0 0 0-.018.708v10.374c-13.332 7.482-25.68-10.56-25.68-10.56l6.162-5.718c4.986 5.424 11.148 7.92 17.598-1.026z"
    fill="#5242B7" />
  <path
    d="M486.75 204.526c0 10.794-2.694 19.584-11.1 27.684-.288-.084-1.146-.276-3.312-2.364-1.362-1.308-2.298-4.284-2.298-4.284s.438-.726 1.062-1.956h-3.048l-18.87.018-10.746.012c-.9 0-1.614-.756-1.56-1.656l1.302-20.91v-10.374c0-.24.006-.474.018-.708.324-8.238 6.408-15 14.34-16.38l.114-.018a17.47 17.47 0 0 1 2.874-.24h6.144c.972 0 1.932.084 2.868.24a16.9 16.9 0 0 1 3.678 1.044c10.032 3.558 18.534 16.032 18.534 29.892z"
    fill="#6D58F4" />
  <path
    d="M468.066 223.636H449.19v-.012l3.132-46.716.222-3.3.114-.018a17.47 17.47 0 0 1 2.874-.24h6.144c.972 0 1.932.084 2.868.24l.24 3.414 3.282 46.602v.03z"
    fill="#F858E3" />
  <path
    d="M464.784 177.004c-1.506.726-3.696 4.86-6.132 4.86-2.55 0-4.824-4.176-6.33-4.956 0 0 2.514-.834 2.124-4.206.036.12.06.222.078.3.084.414.3.636.3.636 2.148-.372 3.618-1.056 4.62-1.842.27-.09.516-.168.732-.21.96-.174 2.97-.702 2.862.24-.288 2.796 1.746 5.178 1.746 5.178z"
    fill="#FAE0B2" />
  <path
    d="M452.55 173.608l-3.354 55.824-14.514-1.8 3.87-27.3s5.574-9.138 6.882-13.98c1.296-4.842 7.116-12.744 7.116-12.744z"
    fill="#6D58F4" />
  <path
    d="M467.268 190.408s1.962 4.344 3.426 11.088c1.464 6.744-.648 24.06-.648 24.06l1.062-2.07s4.818-9.894 4.11-15.978c-.708-6.084-3.096-11.472-7.95-17.1z"
    fill="#5242B7" />
  <path
    d="M420.408 186.382c0-.012.006-.018.006-.024 0-.012 0-.018-.006-.024 0-.012 0-.018-.006-.03a.045.045 0 0 1-.012-.024c-.006-.006-.006-.018-.012-.024h-.006v-.006l-1.524-1.506c-.006-.006-.012-.006-.018-.012-.006-.006-.018-.012-.024-.018-.006-.006-.018-.006-.024-.006-.012 0-.018-.006-.03-.006s-.018 0-.03.006c-.006 0-.018 0-.024.006-.012.006-.018.012-.024.018-.006.006-.012.006-.018.012l-1.704 1.548-.564.516-.564.516-.564.51-2.838 2.58c-.006.006-.006.012-.012.018-.006.006-.012.018-.018.024-.006.006-.006.018-.006.024 0 .012-.006.018-.006.03v.024c0 .012 0 .018.006.03 0 .012.006.018.012.024.006.006.006.012.012.018l1.29 1.728s.006 0 .006.006c0 0 0 .006.006.006.006.012.018.012.03.024.006.006.012.012.018.012a.213.213 0 0 0 .06.012c.018 0 .03-.006.048-.006.006 0 .012-.006.012-.006.006-.006.018-.006.024-.012 0 0 0-.006.006-.006 0 0 .006 0 .006-.006l3.528-3.21.588-.534.588-.534 1.176-1.074.582-.528v-.006c0-.006 0 0 .006 0 .006-.006.006-.012.012-.018.006-.006.012-.018.018-.024-.012-.03-.006-.042-.006-.048zm-.72.306l-1.296-1.32.354-.324 1.32 1.302-.378.342zm-.588.534l-1.278-1.338.354-.324 1.296 1.32-.372.342zm-.588.528l-1.26-1.356.354-.324 1.278 1.338-.372.342zm-.588.534l-1.242-1.374.354-.324 1.26 1.356-.372.342zm-.582.534l-1.224-1.392.354-.324 1.242 1.374-.372.342zm-.588.534l-1.206-1.404.354-.324 1.224 1.392-.372.336zm-.588.534l-1.188-1.422.354-.324 1.206 1.404-.372.342zm-.588.534l-1.17-1.44.354-.324 1.188 1.422-.372.342zm-.588.534l-1.152-1.458.354-.324 1.17 1.44-.372.342zm-.582.534l-1.134-1.476.354-.324 1.152 1.458-.372.342zm-.588.534l-1.116-1.494.354-.324 1.134 1.476-.372.342z"
    fill="#171C51" />
  <path
    d="M470.544 218.17a3.366 3.366 0 1 0 0-6.732 3.366 3.366 0 0 0 0 6.732zM451.314 212.968a5.21 5.21 0 0 0 5.208 5.208 5.21 5.21 0 0 0 5.208-5.208 5.21 5.21 0 0 0-5.208-5.208 5.203 5.203 0 0 0-5.208 5.208zm-10.23 1.836a3.365 3.365 0 0 0 3.366 3.366 3.365 3.365 0 0 0 3.366-3.366 3.365 3.365 0 0 0-3.366-3.366 3.369 3.369 0 0 0-3.366 3.366z"
    fill="#fff" />
  <path
    d="M462.666 163.732l-10.812 1.86 1.434 4.092.006.012.396 1.128.378 1.086.078.222 1.302.15-.858.834s.42 1.692 3.822 1.692 4.614-1.662 4.614-1.662l-.36-9.414z"
    fill="#FAE0B2" />
  <path
    d="M463.014 160.426c.24 5.076-2.556 9.27-7.428 10.722-3.732 1.11-6.612-.45-10.962-9.858-2.136-4.614 3.684-9.39 8.766-9.624 5.076-.246 9.384 3.678 9.624 8.76z"
    fill="#FAE0B2" />
  <path
    d="M454.962 173.716s-.24-.198-.372-.6c-.144-.438-.762-1.674-.762-1.674s5.838-.684 7.194-4.584c0 0 1.038 4.806-6.06 6.858z"
    fill="#FE875E" />
  <path
    d="M463.164 158.26s-11.466 3.816-17.622-2.334c0 0 3.912 4.44 6.618 3.966 0 0-3.84 1.188-6.618-3.174 0 0-.774 4.014-2.766 4.836 0 0-1.824-11.184 7.812-12.576 9.636-1.386 12.108 4.872 12.576 9.282z"
    fill="#13375B" />
  <path
    d="M442.662 160.258s.432 5.028 2.502 6.6 2.304 2.412 2.304 2.412.132-.966-1.272-4.806-.348-6.918-.654-8.538c-.306-1.626-3.192 2.358-2.88 4.332zm14.79-1.194s3.258 1.074 3.264 5.004c0 3.924-2.622 11.514.36 13.08 0 0-2.202-2.382.318-6.252 2.52-3.87 3.036-11.622.75-16.674-2.292-5.046-4.692 4.842-4.692 4.842z"
    fill="#13375B" />
  <path
    d="M457.452 149.53s-.978-3.936 4.824-4.602c5.802-.672 5.058 13.542 9.15 14.136 0 0-.39 2.34-4.164-1.044-3.774-3.384-4.614-9.672-7.962-7.662-3.348 2.01-1.848-.828-1.848-.828z"
    fill="#13375B" />
  <path
    d="M407.724 407.41s2.214 7.218-.084 16.074l-7.698-.642-21.882-1.674v-.006s.666-3.498.666-7.59c0-3.762-.666-7.596-.666-7.596l21.564 1.026 8.1.408z"
    fill="#FAE0B2" />
  <path
    d="M410.028 404.026s4.284 9.96 0 22.854l-32.562-2.148c-.702-.048-1.248-.882-1.224-1.866.03-.972.606-1.74 1.29-1.74h.06l.462.036 21.882 1.674 7.698.642c2.298-8.856.084-16.074.084-16.074l-8.1-.408-21.564-1.026-.528-.03c-.69-.036-1.242-.828-1.242-1.8 0-.99.576-1.794 1.278-1.794h.06l32.406 1.68z"
    fill="#F79C8D" />
  <path d="M507.132 400.906h-3.108l-93.996 3.12-32.406-1.674 94.584-1.884 34.926.438z" fill="#F47458" />
  <path
    d="M507.132 400.906s4.524 13.362.504 23.28h-3.612l-93.996 2.694c4.284-12.894 0-22.854 0-22.854l93.996-3.12h3.108z"
    fill="#F47458" />
  <path
    d="M408.222 411.988c-3.39.156-6.768.048-10.14-.12-3.372-.198-6.738-.468-10.092-1.002 3.39-.162 6.768-.054 10.14.12 3.372.198 6.738.468 10.092 1.002zm-17.298 5.412c-1.89.168-3.756.072-5.61-.09-1.854-.186-3.702-.444-5.526-.966 1.89-.168 3.756-.072 5.61.09 1.854.192 3.702.444 5.526.966z"
    fill="#E5BD83" />
  <path
    d="M393.42 420.214c-1.398-2.172-1.14-7.11.48-9.12l8.544.45c-1.62 2.01-1.878 6.948-.48 9.12a32.02 32.02 0 0 1-5.04-2.496c-1.266.816-2.418 1.524-3.504 2.046zm24.546 6.414c4.026-9.918-.492-22.86-.492-22.86h8.79s4.518 12.942.492 22.86h-8.79zm73.83-2.01c4.026-9.918-.492-22.86-.492-22.86h8.79s4.518 12.942.492 22.86h-8.79z"
    fill="#F8C558" />
  <path
    d="M466.332 380.752l-2.226.204c5.538.396 9.702 5.196 9.306 10.728l-.216 3.066c-.33 4.62-3.738 8.286-8.082 9.132l35.754-2.868c5.958-.576 10.302-5.904 9.69-11.856l-.168-1.65a10.785 10.785 0 0 0-11.688-9.642h-.006l-32.364 2.886z"
    fill="#355389" />
  <path d="M380.244 379.048l83.862 1.908 2.226-.204 32.358-2.88h.006l.39-.036-118.842 1.212z" fill="#355389" />
  <path
    d="M382.656 382.426l81.27 2.13a6.417 6.417 0 0 1 4.62 2.55c.972 1.296 1.374 2.934 1.254 4.56l-.21 2.832c-.234 3.3-3.006 5.928-6.306 5.982a6.029 6.029 0 0 1-.57-.018l-.084-.006-80.088-1.818-1.992-.048a1.654 1.654 0 0 0-1.686 1.686l.006.294a1.653 1.653 0 0 0 1.614 1.626l81.972 1.86c.912.066 1.8.006 2.658-.162 4.338-.846 7.752-4.512 8.082-9.132l.216-3.066a10.031 10.031 0 0 0-9.306-10.728l-83.862-1.908a1.647 1.647 0 0 0-1.686 1.686c.012.888.72 1.602 1.602 1.626l2.496.054z"
    fill="#466EB6" />
  <path
    d="M382.548 398.632l80.088 1.818.084.006c.186.012.384.024.57.018 3.3-.054 6.072-2.682 6.306-5.982l.21-2.832c.12-1.626-.282-3.264-1.254-4.56a6.417 6.417 0 0 0-4.62-2.55l-81.27-2.13c.03.144 1.062 4.98 1.11 8.088.042 3.096-1.224 8.124-1.224 8.124z"
    fill="#FAE0B2" />
  <path
    d="M462.756 389.248c-2.346-.39-4.698-.642-7.05-.84-2.352-.21-4.71-.33-7.068-.438-2.358-.078-4.716-.144-7.08-.12-2.364.012-4.722.078-7.092.282 2.346.396 4.698.642 7.05.84 2.352.21 4.71.33 7.068.438 2.358.078 4.716.144 7.08.12 2.364-.012 4.728-.078 7.092-.282zm-19.386 6.594c-2.346-.39-4.698-.642-7.05-.84-2.352-.21-4.71-.33-7.068-.438-2.358-.078-4.716-.144-7.08-.12-2.364.012-4.722.078-7.092.282 2.346.396 4.698.642 7.05.84 2.352.21 4.71.33 7.068.438 2.358.078 4.716.144 7.08.12 2.364-.018 4.722-.078 7.092-.282z"
    fill="#E5BD83" />
  <path
    d="M440.178 408.076c-3.258-4.362-3.468-15.15-.348-19.614 6.006-.096 11.352.54 17.358.444-3.114 4.464-2.238 14.52 1.02 18.882-3.798-1.164-7.494-2.73-10.956-4.518-2.55 1.884-4.86 3.546-7.074 4.806z"
    fill="#50BFA5" />
  <path
    d="M422.604 391.624c-3.228-.39-6.462-.642-9.696-.84-3.234-.21-6.468-.33-9.708-.438-3.24-.078-6.474-.144-9.714-.12-3.24.012-6.48.078-9.726.282 3.228.39 6.462.642 9.696.84 3.234.21 6.468.33 9.708.438 3.24.078 6.474.138 9.714.12 3.24-.012 6.48-.078 9.726-.282z"
    fill="#E5BD83" />
  <path
    d="M426.246 361.714s3.108 7.218-.114 16.074l-12.234-.672-30.678-1.674v-.006s.93-3.498.93-7.59c0-3.762-.93-7.596-.93-7.596v-.006l30.24 1.032 12.786.438z"
    fill="#FAE0B2" />
  <path
    d="M382.578 375.406l.642.036 30.678 1.674 12.234.672c3.222-8.856.114-16.074.114-16.074l-12.786-.438-30.24-1.032-.726-.024a1.798 1.798 0 0 1 .048-3.594h.078l45.42 1.68s6 9.96 0 22.854l-45.636-2.148a1.815 1.815 0 0 1-1.716-1.866 1.816 1.816 0 0 1 1.812-1.74h.078z"
    fill="#BF50A7" />
  <path d="M382.626 356.626l124.458-1.572-.684.03-78.36 3.222-45.414-1.68z" fill="#8F3C7D" />
  <path
    d="M429.558 358.24l76.842-3.156c3.828-.15 7.02 2.904 7.044 6.738l.048 9.57a6.77 6.77 0 0 1-6.516 6.81l-78.936 2.958c6-12.894 0-22.854 0-22.854l1.518-.066z"
    fill="#8F3C7D" />
  <path
    d="M426.018 367.894c-2.37.168-4.734.192-7.098.168-2.364-.018-4.716-.114-7.074-.234-2.352-.144-4.71-.306-7.056-.552-2.352-.234-4.698-.522-7.032-.954 2.37-.168 4.734-.192 7.098-.168 2.364.018 4.716.114 7.074.234 2.352.144 4.71.306 7.056.552 2.346.24 4.692.528 7.032.954zm-25.062 3.78c-2.628.168-5.232.072-7.836-.09-2.604-.186-5.196-.444-7.776-.966 2.628-.174 5.232-.072 7.836.09 2.598.192 5.196.444 7.776.966z"
    fill="#E5BD83" />
  <path
    d="M405.162 382.012c-2.394-3.528-2.154-11.91.444-15.288 4.71.138 9.24.72 13.95.852-2.598 3.384-2.664 11.316-.27 14.844-2.928-1.05-5.772-2.4-8.418-3.924-2.058 1.392-3.93 2.61-5.706 3.516z"
    fill="#355389" />
  <path
    d="M475.326 339.184s-2.13 7.242.264 16.074l7.692-.726 21.864-1.92v-.006s-.702-3.486-.75-7.584c-.042-3.762.576-7.602.576-7.602l-21.552 1.266-8.094.498z"
    fill="#FAE0B2" />
  <path
    d="M472.986 335.83s-4.17 10.008.258 22.854l32.532-2.514c.696-.06 1.236-.894 1.206-1.878-.042-.972-.624-1.728-1.308-1.722h-.06l-.462.042-21.864 1.92-7.692.726c-2.4-8.832-.264-16.074-.264-16.074l8.094-.504 21.552-1.266.528-.036c.69-.042 1.23-.84 1.218-1.818-.012-.99-.594-1.788-1.296-1.782h-.06l-32.382 2.052z"
    fill="#F79C8D" />
  <path d="M375.858 333.796l3.102-.036 94.026 2.07 32.382-2.04-94.596-.822-34.914.828z" fill="#F47458" />
  <path
    d="M375.858 333.796s-4.374 13.416-.246 23.286l3.612-.042 94.02 1.644c-4.428-12.846-.258-22.854-.258-22.854l-94.02-2.07-3.108.036z"
    fill="#F47458" />
  <path
    d="M474.882 343.768c3.39.12 6.768-.024 10.134-.234 3.366-.24 6.732-.54 10.08-1.11-3.39-.12-6.768.024-10.134.234-3.372.234-6.732.54-10.08 1.11zm17.352 5.22c1.89.15 3.756.03 5.61-.156 1.854-.21 3.702-.486 5.514-1.026-1.89-.15-3.756-.03-5.61.156-1.848.21-3.696.48-5.514 1.026z"
    fill="#E5BD83" />
  <path
    d="M489.774 351.832c1.374-2.184 1.062-7.122-.582-9.114-2.844.18-5.694.366-8.538.546 1.644 1.992 1.956 6.93.582 9.114a31.7 31.7 0 0 0 5.01-2.55c1.278.792 2.436 1.488 3.528 2.004zm-24.474 6.684c-4.14-9.876.24-22.866.24-22.866l-8.79.096s-4.374 12.99-.24 22.866l8.79-.096zm-73.848-1.182c-4.14-9.876.24-22.866.24-22.866l-8.79.096s-4.374 12.99-.24 22.866l8.79-.096z"
    fill="#F8C558" />
  <path d="M438.828 256.276l-1.26 10.128-9.18-1.41-.066-.258-.324-1.266-.348-1.314v-.018l-1.242-4.77 12.42-1.092z"
    fill="#FAE0B2" />
  <path
    d="M439.536 252.562c-.21 5.778-3.834 11.118-9.612 10.908-5.778-.21-10.242-.18-11.304-11.658-.534-5.754 5.058-10.29 10.836-10.08 5.772.204 10.29 5.052 10.08 10.83z"
    fill="#FAE0B2" />
  <path
    d="M432.648 237.916s-.126-8.322-12.504-7.746c-11.4.528-11.946 26.484 8.544 16.824 1.782-.84 3.822-.996 5.688-.372.288.096.552.198.75.294 1.104.54.942 3.612.942 3.612s1.464-1.158 1.89.852c.426 2.01-1.452 2.316-1.452 2.316l1.236 5.232s1.962-3.192 3.306-8.748c1.296-5.394-3.126-13.908-8.4-12.264z"
    fill="#13375B" />
  <path d="M428.628 266.17l-.636-2.7s6.66.546 9.048-3.498c.006 0-.036 5.502-8.412 6.198z" fill="#FE875E" />
  <path
    d="M419.85 266.908s14.538-3.144 14.106 1.62c-.186 2.034-6.426 11.178-6.57 11.934-.096.552-.216 1.116-.33 1.674a47.657 47.657 0 0 1-.372 1.686c-.138.564-.264 1.128-.42 1.692l-.486 1.71c-.078.282-.168.57-.27.864l-.288.87-.294.864-.342.888-.354.882c-.06.15-.114.294-.18.444l-.21.456-.426.912-.216.456-.108.228-.18.342c-.264.468-.522.942-.822 1.386-.312.432-.63.858-.966 1.266-.348.378-.702.75-1.068 1.11-.366.336-.744.642-1.128.948a16.367 16.367 0 0 1-4.566 2.394c-.366.114-.744.258-1.092.342l-1.068.27c-.69.144-1.386.27-2.046.354-1.332.174-2.622.24-3.852.228-2.478-.012-4.806-.312-7.062-.726a49.764 49.764 0 0 1-3.33-.768c-.546-.156-1.092-.306-1.638-.474l-.816-.27-.87-.3 1.446-7.962c.066-.018.204-.018.312-.03l.354-.024.72-.054c.48-.03.966-.066 1.452-.108.966-.09 1.926-.168 2.868-.3 1.884-.222 3.708-.546 5.358-.978a18.281 18.281 0 0 0 2.286-.738c.168-.072.348-.132.498-.21.156-.078.306-.15.462-.216l.408-.228c.144-.072.234-.156.354-.228.432-.306.654-1.338.654-1.338l.144-.534.072-.264c.024-.09.042-.198.066-.294l.126-.594.138-.588.114-.636c.072-.432.162-.828.222-1.278.144-.876.432-3.912.786-7.938.354-4.296 3.462-7.632 8.424-8.742z"
    fill="#F8C558" />
  <path
    d="M453.78 299.854l.726-13.014c.588-10.44.03-21.366-16.74-21.354-.018-.006-.042-.006-.066-.012a28.92 28.92 0 0 0-2.316-.288l-.252-.018c-21.618 0-21.036 8.034-21.672 19.368l-.684 12.192-1.02 18.192 41.046 2.298.978-17.364z"
    fill="#F47458" />
  <path d="M435.384 265.186c.39.03 1.206.108 2.316.288a20.87 20.87 0 0 0-2.316-.288z" fill="#587CF8" />
  <path
    d="M422.988 312.16h3.858a3.027 3.027 0 0 0 3.024-3.024 3.027 3.027 0 0 0-3.024-3.024h-3.858a3.023 3.023 0 1 0 0 6.048z"
    fill="#FAE0B2" />
  <path
    d="M423.474 307.426a1.412 1.412 0 0 0-1.71-1.032l-4.56 1.128a1.412 1.412 0 1 0 .678 2.742l4.56-1.128a1.416 1.416 0 0 0 1.032-1.71z"
    fill="#FAE0B2" />
  <path
    d="M422.148 309.208a1.412 1.412 0 0 0-1.71-1.032l-5.004 1.236a1.412 1.412 0 1 0 .678 2.742l5.004-1.236a1.414 1.414 0 0 0 1.032-1.71z"
    fill="#FAE0B2" />
  <path
    d="M375.816 367.09s1.806 2.022.09 4.05l-4.968-2.034a3.228 3.228 0 0 1 2.364-1.632c.984-.144 1.794-.264 2.514-.384zm23.514 5.874l-1.434 3.504c-4.53-1.92-2.376-5.76-2.376-5.76 1.872.63 3.024.918 3.228.972a.168.168 0 0 0 .036.006l.018.006a.98.98 0 0 1 .528 1.272z"
    fill="#F8A492" />
  <path
    d="M382.548 365.92c.468-.084.966-.174 1.518-.264 0 0 .408.24 1.152.636a67.668 67.668 0 0 0 6.06 2.826c.228.09.45.186.666.264 1.38.552 2.592.99 3.594 1.332 0 0-2.154 3.834 2.376 5.76l-1.29 3.156-20.712-8.484c1.716-2.034-.09-4.05-.09-4.05 1.506-.24 2.64-.438 4.176-.714.726-.138 1.548-.282 2.55-.462z"
    fill="#F47458" />
  <path
    d="M396.618 379.63l-.048.114c-.258.63-.972.93-1.602.672l-23.676-9.696a.967.967 0 0 1-.522-1.26c.048-.12.108-.234.168-.348l4.968 2.034 20.712 8.484z"
    fill="#B75742" />
  <path
    d="M399.852 369.118l-1.056 2.574s-.012-.006-.036-.006c-.366-.108-3.576-.966-6.726-2.208-.216-.084-.534-.264-.762-.36a70.377 70.377 0 0 1-6.06-2.826c-.714-.384-1.104-.612-1.104-.612l1.056-2.574 13.572 5.556 1.116.456z"
    fill="#FAE0B2" />
  <path
    d="M383.67 368.974a.145.145 0 0 1-.084-.084l-1.182-2.922a.148.148 0 0 1 .078-.192.148.148 0 0 1 .192.078l1.182 2.916a.148.148 0 0 1-.078.192.091.091 0 0 1-.108.012zm-1.302.276a.145.145 0 0 1-.084-.084l-1.182-2.922a.148.148 0 0 1 .078-.192.148.148 0 0 1 .192.078l1.182 2.922a.148.148 0 0 1-.078.192c-.03.024-.072.024-.108.006zm-1.254.168a.145.145 0 0 1-.084-.084l-1.176-2.904a.063.063 0 0 0-.012-.03c-.024-.078.024-.156.102-.18.078-.024.156.024.18.102l.006.012 1.17 2.886a.148.148 0 0 1-.078.192.1.1 0 0 1-.108.006zm38.286 7.038s2.7.204 2.874 2.862l-4.992 1.974a3.229 3.229 0 0 1 .576-2.82c.6-.786 1.104-1.434 1.542-2.016zm21.024-12.054l1.392 3.522c-4.602 1.752-5.706-2.508-5.706-2.508 1.782-.84 2.82-1.428 3-1.536.018-.012.03-.018.03-.018l.018-.006a.976.976 0 0 1 1.266.546z"
    fill="#F8A492" />
  <path
    d="M423.438 370.948c.276-.384.582-.792.912-1.242 0 0 .462-.114 1.272-.342a68.597 68.597 0 0 0 6.996-2.43 71.002 71.002 0 0 0 3.516-1.53s1.104 4.26 5.706 2.508l1.254 3.174-20.814 8.232c-.174-2.652-2.874-2.862-2.874-2.862a179.402 179.402 0 0 0 2.514-3.408c.432-.6.918-1.278 1.518-2.1z"
    fill="#F47458" />
  <path
    d="M443.082 371.086l.048.114a1.23 1.23 0 0 1-.69 1.596l-23.79 9.408a.98.98 0 0 1-.738-.012.98.98 0 0 1-.516-.534c-.048-.12-.084-.246-.12-.366l4.992-1.974 20.814-8.232z"
    fill="#B75742" />
  <path
    d="M438.138 361.264l1.02 2.586s-.012.006-.03.018c-.336.18-3.252 1.782-6.378 3.066-.216.09-.57.18-.798.27a69.216 69.216 0 0 1-6.33 2.16c-.78.216-1.218.324-1.218.324l-1.02-2.586 13.638-5.394 1.116-.444z"
    fill="#FAE0B2" />
  <path
    d="M426.366 372.376a.185.185 0 0 1-.114 0l-2.874-1.29c-.072-.036-.108-.12-.072-.192.036-.072.12-.108.192-.072l2.874 1.29c.072.036.108.12.072.192-.012.03-.042.054-.078.072zm-.744 1.098a.185.185 0 0 1-.114 0l-2.874-1.284c-.072-.03-.108-.12-.072-.192.036-.072.12-.108.192-.072l2.874 1.284c.072.03.108.12.072.192a.152.152 0 0 1-.078.072zm-.792.99a.185.185 0 0 1-.114 0l-2.862-1.278c-.006 0-.024-.012-.03-.018-.072-.042-.09-.132-.048-.204.042-.072.132-.09.204-.048l.012.006 2.844 1.272c.072.036.108.12.072.192a.113.113 0 0 1-.078.078z"
    fill="#F8A492" />
  <path
    d="M436.8 313s-18.9-.978-33.63-.978c-14.73 0-19.62 4.794-17.712 18.684 1.938 14.088-.978 32.19-.978 32.19l16.824 6.792s7.218-29.322 5.658-36.102c0 0 32.478 3.516 29.838-20.586z"
    fill="#355389" />
  <path
    d="M453.114 321.484c-2.514 16.548-23.784 12.672-23.784 12.672 1.56 6.774 9.696 26.814 9.696 26.814l-16.806 6.546s-11.268-22.578-14.394-36.24c-3.126-13.662 2.976-18.684 17.712-18.684 8.256 0 15.936.714 21.096 1.35 4.05.492 6.54.936 6.54.936.27 2.502.234 4.692-.06 6.606z"
    fill="#466EB6" />
  <path
    d="M436.5 361.858l-.324-.738.27-.12.306.702c.024.06.03.066.03.102h-.294.144l-.132.054zm-.684-1.554l-.354-.81.27-.12.354.81-.27.12zm-.702-1.62l-.348-.81.27-.114.348.81-.27.114zm-.702-1.62l-.348-.81.27-.114.348.81-.27.114zm-.696-1.626l-.348-.81.27-.114.348.81-.27.114zm-.696-1.62l-.342-.81.27-.114.342.81-.27.114zm-.684-1.626l-.342-.81.27-.114.342.81-.27.114zm-.684-1.626l-.342-.816.27-.114.342.816-.27.114zm-.684-1.626l-.336-.816.27-.114.336.816-.27.114zm-.672-1.632l-.336-.816.27-.114.336.816-.27.114zm-.672-1.632c-.114-.27-.222-.546-.33-.816l.27-.108c.108.27.222.546.33.816l-.27.108zm-.66-1.632c-.108-.276-.222-.546-.33-.816l.27-.108c.108.27.216.546.33.816l-.27.108zm-.654-1.638l-.324-.822.276-.108c.108.27.216.546.324.822l-.276.108zm-.648-1.644a75.466 75.466 0 0 1-.318-.822l.276-.108c.102.27.21.546.318.822l-.276.108zm-.636-1.644c-.108-.276-.21-.552-.312-.828l.276-.102c.102.27.204.546.312.822l-.276.108zm-.624-1.656a62.436 62.436 0 0 0-.306-.828l.276-.102c.096.27.198.546.306.828l-.276.102zm-.606-1.656c-.102-.282-.198-.564-.294-.834l.276-.096.294.834-.276.096zm-.576-1.668c-.096-.288-.192-.57-.276-.84l.282-.09c.084.27.18.546.276.834l-.282.096zm-.54-1.692c-.09-.3-.174-.588-.24-.852l.282-.078c.072.264.15.546.24.846l-.282.084zm4.29-1.098c-.276 0-.54 0-.792-.006l.006-.294c.252.006.516.006.786.006h.09v.294h-.09zm.978-.012l-.006-.294c.288-.006.576-.018.876-.03l.012.294c-.3.012-.594.024-.882.03zm-2.652-.024c-.318-.012-.612-.03-.882-.048l.018-.294c.27.018.564.03.876.048l-.012.294zm4.416-.06l-.018-.294c.288-.018.582-.042.876-.072l.03.294c-.3.03-.594.054-.888.072zm-6.18-.048a27.052 27.052 0 0 1-.882-.09l.036-.294c.18.024.48.054.87.09l-.024.294zm7.944-.12l-.036-.294c.288-.036.576-.072.87-.114l.042.288c-.294.048-.588.09-.876.12zm1.752-.258l-.054-.288c.288-.054.576-.108.864-.168l.06.288c-.288.06-.582.12-.87.168zm1.734-.36l-.072-.288c.288-.072.576-.144.846-.222l.078.282c-.27.084-.558.156-.852.228zm1.71-.474l-.09-.282c.282-.09.558-.186.828-.282l.102.276c-.276.096-.558.192-.84.288zm1.668-.612l-.114-.27c.276-.114.54-.234.798-.354l.126.264c-.264.126-.534.246-.81.36zm1.602-.75l-.138-.258c.258-.138.516-.282.762-.426l.15.252c-.246.144-.51.288-.774.432zm1.524-.918l-.162-.246c.24-.162.48-.336.708-.51l.18.234c-.234.18-.48.36-.726.522zm1.41-1.086l-.192-.222c.216-.192.432-.39.636-.594l.21.21c-.21.21-.432.414-.654.606zm1.26-1.254l-.222-.192c.192-.216.378-.444.552-.672l.234.18c-.18.228-.372.462-.564.684zm1.074-1.416l-.246-.162c.156-.24.312-.492.45-.744l.258.144c-.144.258-.3.516-.462.762zm.87-1.548l-.264-.126c.12-.258.24-.528.348-.798l.27.108c-.114.276-.228.552-.354.816zm.654-1.65l-.282-.09c.09-.27.168-.552.246-.834l.282.072c-.072.288-.156.57-.246.852z"
    fill="#171C51" />
  <path d="M453.114 321.484a6.608 6.608 0 0 1-6.486-7.548c4.05.492 6.54.936 6.54.936.276 2.508.24 4.698-.054 6.612z"
    fill="#355389" />
  <path
    d="M453.114 321.628c-3.69-.03-6.696-3.06-6.696-6.756 0-.318.024-.636.072-.954l.288.042a6.73 6.73 0 0 0-.066.912c0 3.534 2.874 6.432 6.402 6.462v.294zm-31.968 43.71l-.108-.27.564-.228.108.27-.564.228zm1.386-.558l-.108-.27.816-.33.108.27-.816.33zm1.632-.66l-.108-.27.816-.33.108.27-.816.33zm1.632-.66l-.108-.27.816-.33.108.27-.816.33zm1.632-.66l-.108-.27.816-.33.108.27-.816.33zm1.632-.66l-.108-.27.816-.33.108.27-.816.33zm1.632-.66l-.108-.27.816-.33.108.27-.816.33zm1.632-.66l-.108-.27.816-.33.108.27-.816.33zm1.638-.66l-.108-.27.816-.33.108.27-.816.33zm1.632-.66l-.108-.27.816-.33.108.27-.816.33zm1.632-.66l-.108-.27.816-.33.108.27-.816.33z"
    fill="#171C51" />
  <path
    d="M400.176 312.058h16.332c-.342 0-.654.114-.882.306a.953.953 0 0 0-.366.738c0 .576.564 1.05 1.248 1.05H382.92c-.684 0-1.248-.474-1.248-1.05 0-.288.144-.552.366-.738.228-.192.54-.306.882-.306h17.256z"
    fill="#D1D1D1" />
  <path
    d="M434.814 312.058a1.051 1.051 0 0 1 0 2.1h-18.522c-.576 0-1.05-.474-1.05-1.05a1.048 1.048 0 0 1 1.05-1.044H434.814v-.006z"
    fill="#9E9E9E" />
  <path
    d="M417.402 311.512a1.471 1.471 0 0 1-1.146.546h-1.326a1.481 1.481 0 0 0 1.446-1.782l-4.386-20.97a1.489 1.489 0 0 0-1.452-1.176h1.326c.696 0 1.308.498 1.452 1.176l4.386 20.97c.09.438-.018.882-.3 1.236z"
    fill="#D1D1D1" />
  <path
    d="M416.076 311.512a1.471 1.471 0 0 1-1.146.546h-31.872a1.495 1.495 0 0 1-1.452-1.176l-4.386-20.97a1.48 1.48 0 0 1 1.446-1.782h31.866c.696 0 1.308.498 1.452 1.176l4.386 20.97c.102.438-.006.882-.294 1.236z"
    fill="#F4F4F4" />
  <path d="M398.526 300.088a1.728 1.728 0 1 1-3.457 0 1.728 1.728 0 0 1 3.457 0z" fill="#fff" />
  <path
    d="M453.714 273.484c.744 2.802 1.428 5.52 1.566 6.582 2.82 11.61-.222 20.538-2.556 24.48-6.162 8.562-27.174 7.512-27.174 7.512l.576-6.924s8.166-.762 14.64-3.984c5.268-2.496 1.65-15.9-1.128-23.076a7.412 7.412 0 0 1 4.29-9.612c4.11-1.548 8.652.786 9.786 5.022z"
    fill="#F8C558" />
</svg>